M48
;DRILL file {Pcbnew (2014-01-10 BZR 4027)-stable} date Saturday, May 10, 2014 'pmt' 10:43:02 pm
;FORMAT={2:4/ absolute / inch / suppress leading zeros}
FMAT,2
INCH,TZ
T1C0.031
T2C0.032
T3C0.126
%
G90
G05
M72
T1
X74303Y-45276
X75303Y-45276
X77756Y-54315
X77756Y-55315
X77756Y-56315
T2
X68382Y-53740
X71382Y-53740
X72319Y-49484
X72319Y-52484
X73319Y-49484
X73319Y-52484
X74319Y-49484
X74319Y-52484
X75319Y-49484
X75319Y-52484
X80118Y-48697
X80118Y-51697
T3
X64567Y-44882
X64567Y-61417
X81102Y-44882
X81102Y-61417
T1
X64272Y-55197G85X64469Y-55197
G05
X64272Y-57795G85X64469Y-57795
G05
X64587Y-47539G85X64587Y-47343
G05
X64587Y-49508G85X64587Y-49311
G05
X64587Y-51476G85X64587Y-51280
G05
X67421Y-55197G85X67618Y-55197
G05
X67421Y-57795G85X67618Y-57795
G05
T0
M30
