G04 (created by PCBNEW (2014-01-10 BZR 4027)-stable) date Saturday, May 10, 2014 'pmt' 10:24:49 pm*
%MOIN*%
G04 Gerber Fmt 3.4, Leading zero omitted, Abs format*
%FSLAX34Y34*%
G01*
G70*
G90*
G04 APERTURE LIST*
%ADD10C,0.00590551*%
%ADD11R,0.06X0.06*%
%ADD12C,0.06*%
%ADD13C,0.055*%
%ADD14R,0.11811X0.0551181*%
%ADD15C,0.11811*%
%ADD16C,0.19685*%
%ADD17R,0.05X0.05*%
%ADD18C,0.05*%
%ADD19C,0.0669291*%
%ADD20C,0.01*%
G04 APERTURE END LIST*
G54D10*
G54D11*
X72318Y-52484D03*
G54D12*
X73318Y-52484D03*
X74318Y-52484D03*
X75318Y-52484D03*
X75318Y-49484D03*
X74318Y-49484D03*
X73318Y-49484D03*
X72318Y-49484D03*
G54D13*
X80118Y-48696D03*
X80118Y-51696D03*
X68381Y-53740D03*
X71381Y-53740D03*
G54D14*
X77755Y-54314D03*
X77755Y-55314D03*
X77755Y-56314D03*
G54D15*
X67519Y-55196D03*
X64370Y-57795D03*
X67519Y-57795D03*
X64370Y-55196D03*
X64586Y-49409D03*
X64586Y-47440D03*
X64586Y-51377D03*
G54D16*
X81102Y-44881D03*
X64566Y-44881D03*
X64566Y-61417D03*
X81102Y-61417D03*
G54D17*
X74303Y-45275D03*
G54D18*
X75303Y-45275D03*
G54D19*
X73318Y-52484D02*
X73318Y-51090D01*
X78468Y-51696D02*
X80118Y-51696D01*
X77755Y-50984D02*
X78468Y-51696D01*
X73425Y-50984D02*
X77755Y-50984D01*
X73318Y-51090D02*
X73425Y-50984D01*
X73318Y-52484D02*
X73318Y-53649D01*
X73228Y-53740D02*
X71381Y-53740D01*
X73318Y-53649D02*
X73228Y-53740D01*
X74318Y-52484D02*
X74318Y-55208D01*
X74307Y-55196D02*
X67519Y-55196D01*
X74318Y-55208D02*
X74307Y-55196D01*
X74303Y-45275D02*
X74303Y-47350D01*
X74303Y-47350D02*
X74409Y-47244D01*
X64586Y-47440D02*
X74212Y-47440D01*
X74318Y-47547D02*
X74318Y-49484D01*
X74212Y-47440D02*
X74318Y-47547D01*
X64586Y-51377D02*
X68307Y-51377D01*
X68381Y-51452D02*
X68381Y-53740D01*
X68307Y-51377D02*
X68381Y-51452D01*
X75318Y-52484D02*
X75318Y-56177D01*
X75456Y-56314D02*
X77755Y-56314D01*
X75318Y-56177D02*
X75456Y-56314D01*
G54D10*
G36*
X82407Y-62722D02*
X82336Y-62722D01*
X82336Y-61172D01*
X82336Y-44637D01*
X82149Y-44183D01*
X81802Y-43836D01*
X81348Y-43647D01*
X80857Y-43647D01*
X80404Y-43834D01*
X80056Y-44181D01*
X79868Y-44635D01*
X79867Y-45126D01*
X80055Y-45580D01*
X80402Y-45927D01*
X80855Y-46115D01*
X81346Y-46116D01*
X81800Y-45928D01*
X82148Y-45581D01*
X82336Y-45128D01*
X82336Y-44637D01*
X82336Y-61172D01*
X82149Y-60719D01*
X81802Y-60371D01*
X81348Y-60183D01*
X80857Y-60182D01*
X80702Y-60246D01*
X80702Y-51696D01*
X80658Y-51473D01*
X80643Y-51450D01*
X80643Y-48592D01*
X80563Y-48399D01*
X80415Y-48252D01*
X80222Y-48171D01*
X80014Y-48171D01*
X79821Y-48251D01*
X79673Y-48399D01*
X79593Y-48591D01*
X79593Y-48800D01*
X79672Y-48993D01*
X79820Y-49141D01*
X80013Y-49221D01*
X80222Y-49221D01*
X80415Y-49142D01*
X80562Y-48994D01*
X80643Y-48801D01*
X80643Y-48592D01*
X80643Y-51450D01*
X80531Y-51283D01*
X80341Y-51156D01*
X80118Y-51112D01*
X78710Y-51112D01*
X78169Y-50570D01*
X77979Y-50444D01*
X77755Y-50399D01*
X77755Y-50399D01*
X75868Y-50399D01*
X75868Y-49375D01*
X75785Y-49173D01*
X75630Y-49018D01*
X75428Y-48934D01*
X75209Y-48934D01*
X75007Y-49017D01*
X74903Y-49121D01*
X74903Y-47547D01*
X74901Y-47539D01*
X74949Y-47467D01*
X74994Y-47244D01*
X74949Y-47020D01*
X74887Y-46927D01*
X74887Y-45567D01*
X75019Y-45699D01*
X75203Y-45775D01*
X75402Y-45775D01*
X75586Y-45699D01*
X75726Y-45559D01*
X75803Y-45375D01*
X75803Y-45176D01*
X75727Y-44992D01*
X75586Y-44851D01*
X75403Y-44775D01*
X75204Y-44775D01*
X75020Y-44851D01*
X74879Y-44991D01*
X74846Y-45070D01*
X74843Y-45051D01*
X74803Y-44991D01*
X74803Y-44976D01*
X74765Y-44884D01*
X74694Y-44813D01*
X74603Y-44775D01*
X74587Y-44775D01*
X74526Y-44735D01*
X74303Y-44690D01*
X74079Y-44735D01*
X74019Y-44775D01*
X74003Y-44775D01*
X73911Y-44813D01*
X73841Y-44883D01*
X73803Y-44975D01*
X73803Y-44991D01*
X73763Y-45051D01*
X73718Y-45275D01*
X73718Y-46856D01*
X65801Y-46856D01*
X65801Y-44637D01*
X65613Y-44183D01*
X65266Y-43836D01*
X64813Y-43647D01*
X64322Y-43647D01*
X63868Y-43834D01*
X63521Y-44181D01*
X63332Y-44635D01*
X63332Y-45126D01*
X63519Y-45580D01*
X63866Y-45927D01*
X64320Y-46115D01*
X64811Y-46116D01*
X65265Y-45928D01*
X65612Y-45581D01*
X65800Y-45128D01*
X65801Y-44637D01*
X65801Y-46856D01*
X65190Y-46856D01*
X65063Y-46728D01*
X64754Y-46600D01*
X64420Y-46600D01*
X64111Y-46727D01*
X63874Y-46964D01*
X63746Y-47273D01*
X63745Y-47607D01*
X63873Y-47916D01*
X64109Y-48153D01*
X64418Y-48281D01*
X64753Y-48281D01*
X65062Y-48153D01*
X65190Y-48025D01*
X73734Y-48025D01*
X73734Y-49177D01*
X73704Y-49169D01*
X73634Y-49239D01*
X73634Y-49098D01*
X73606Y-49002D01*
X73400Y-48929D01*
X73182Y-48940D01*
X73031Y-49002D01*
X73003Y-49098D01*
X73318Y-49413D01*
X73634Y-49098D01*
X73634Y-49239D01*
X73389Y-49484D01*
X73704Y-49799D01*
X73800Y-49772D01*
X73807Y-49751D01*
X73905Y-49897D01*
X74095Y-50024D01*
X74318Y-50068D01*
X74542Y-50024D01*
X74732Y-49897D01*
X74832Y-49747D01*
X74852Y-49795D01*
X75006Y-49950D01*
X75209Y-50034D01*
X75427Y-50034D01*
X75630Y-49950D01*
X75784Y-49796D01*
X75868Y-49594D01*
X75868Y-49375D01*
X75868Y-50399D01*
X73634Y-50399D01*
X73634Y-49870D01*
X73318Y-49554D01*
X73248Y-49625D01*
X73248Y-49484D01*
X72932Y-49169D01*
X72837Y-49196D01*
X72817Y-49251D01*
X72785Y-49173D01*
X72630Y-49018D01*
X72428Y-48934D01*
X72209Y-48934D01*
X72007Y-49017D01*
X71852Y-49172D01*
X71768Y-49374D01*
X71768Y-49593D01*
X71852Y-49795D01*
X72006Y-49950D01*
X72209Y-50034D01*
X72427Y-50034D01*
X72630Y-49950D01*
X72784Y-49796D01*
X72816Y-49720D01*
X72837Y-49772D01*
X72932Y-49799D01*
X73248Y-49484D01*
X73248Y-49625D01*
X73003Y-49870D01*
X73031Y-49965D01*
X73237Y-50039D01*
X73455Y-50028D01*
X73606Y-49965D01*
X73634Y-49870D01*
X73634Y-50399D01*
X73425Y-50399D01*
X73201Y-50444D01*
X73011Y-50570D01*
X73011Y-50570D01*
X72905Y-50677D01*
X72778Y-50866D01*
X72734Y-51090D01*
X72734Y-51090D01*
X72734Y-51961D01*
X72668Y-51934D01*
X72569Y-51934D01*
X71969Y-51934D01*
X71877Y-51972D01*
X71807Y-52042D01*
X71768Y-52134D01*
X71768Y-52233D01*
X71768Y-52833D01*
X71806Y-52925D01*
X71877Y-52996D01*
X71968Y-53034D01*
X72068Y-53034D01*
X72668Y-53034D01*
X72734Y-53007D01*
X72734Y-53155D01*
X71381Y-53155D01*
X71158Y-53200D01*
X70968Y-53326D01*
X70841Y-53516D01*
X70797Y-53740D01*
X70841Y-53963D01*
X70968Y-54153D01*
X71158Y-54280D01*
X71381Y-54324D01*
X73228Y-54324D01*
X73228Y-54324D01*
X73228Y-54324D01*
X73452Y-54280D01*
X73641Y-54153D01*
X73732Y-54063D01*
X73732Y-54063D01*
X73732Y-54063D01*
X73734Y-54060D01*
X73734Y-54612D01*
X68966Y-54612D01*
X68966Y-53740D01*
X68966Y-51452D01*
X68922Y-51229D01*
X68795Y-51039D01*
X68795Y-51039D01*
X68720Y-50964D01*
X68530Y-50837D01*
X68307Y-50793D01*
X68307Y-50793D01*
X65427Y-50793D01*
X65427Y-49242D01*
X65299Y-48933D01*
X65063Y-48697D01*
X64754Y-48569D01*
X64420Y-48568D01*
X64111Y-48696D01*
X63874Y-48932D01*
X63746Y-49241D01*
X63745Y-49575D01*
X63873Y-49884D01*
X64109Y-50121D01*
X64418Y-50249D01*
X64753Y-50250D01*
X65062Y-50122D01*
X65298Y-49886D01*
X65427Y-49577D01*
X65427Y-49242D01*
X65427Y-50793D01*
X65190Y-50793D01*
X65063Y-50665D01*
X64754Y-50537D01*
X64420Y-50537D01*
X64111Y-50664D01*
X63874Y-50901D01*
X63746Y-51210D01*
X63745Y-51544D01*
X63873Y-51853D01*
X64109Y-52090D01*
X64418Y-52218D01*
X64753Y-52218D01*
X65062Y-52090D01*
X65190Y-51962D01*
X67797Y-51962D01*
X67797Y-53740D01*
X67841Y-53963D01*
X67968Y-54153D01*
X68158Y-54280D01*
X68381Y-54324D01*
X68605Y-54280D01*
X68795Y-54153D01*
X68922Y-53963D01*
X68966Y-53740D01*
X68966Y-54612D01*
X68123Y-54612D01*
X67996Y-54484D01*
X67687Y-54356D01*
X67353Y-54356D01*
X67044Y-54483D01*
X66807Y-54720D01*
X66679Y-55028D01*
X66678Y-55363D01*
X66806Y-55672D01*
X67042Y-55909D01*
X67351Y-56037D01*
X67686Y-56037D01*
X67995Y-55909D01*
X68123Y-55781D01*
X74259Y-55781D01*
X74318Y-55793D01*
X74542Y-55748D01*
X74542Y-55748D01*
X74732Y-55622D01*
X74734Y-55619D01*
X74734Y-56177D01*
X74734Y-56177D01*
X74778Y-56400D01*
X74905Y-56590D01*
X75043Y-56728D01*
X75043Y-56728D01*
X75232Y-56855D01*
X75456Y-56899D01*
X75456Y-56899D01*
X75456Y-56899D01*
X77755Y-56899D01*
X77979Y-56855D01*
X78001Y-56840D01*
X78395Y-56840D01*
X78487Y-56802D01*
X78558Y-56732D01*
X78596Y-56640D01*
X78596Y-56541D01*
X78596Y-55989D01*
X78558Y-55897D01*
X78488Y-55827D01*
X78457Y-55814D01*
X78487Y-55802D01*
X78558Y-55732D01*
X78596Y-55640D01*
X78596Y-55541D01*
X78596Y-54989D01*
X78558Y-54897D01*
X78488Y-54827D01*
X78457Y-54814D01*
X78488Y-54802D01*
X78558Y-54731D01*
X78596Y-54640D01*
X78596Y-53989D01*
X78558Y-53897D01*
X78488Y-53827D01*
X78396Y-53789D01*
X78296Y-53789D01*
X77868Y-53789D01*
X77805Y-53851D01*
X77805Y-54264D01*
X78533Y-54264D01*
X78596Y-54202D01*
X78596Y-53989D01*
X78596Y-54640D01*
X78596Y-54427D01*
X78533Y-54364D01*
X77805Y-54364D01*
X77805Y-54372D01*
X77705Y-54372D01*
X77705Y-54364D01*
X77705Y-54264D01*
X77705Y-53851D01*
X77643Y-53789D01*
X77214Y-53789D01*
X77115Y-53789D01*
X77023Y-53827D01*
X76953Y-53897D01*
X76915Y-53989D01*
X76915Y-54202D01*
X76977Y-54264D01*
X77705Y-54264D01*
X77705Y-54364D01*
X76977Y-54364D01*
X76915Y-54427D01*
X76915Y-54640D01*
X76953Y-54731D01*
X77023Y-54802D01*
X77053Y-54814D01*
X77023Y-54827D01*
X76953Y-54897D01*
X76915Y-54989D01*
X76915Y-55088D01*
X76915Y-55640D01*
X76952Y-55730D01*
X75903Y-55730D01*
X75903Y-52484D01*
X75859Y-52260D01*
X75732Y-52070D01*
X75542Y-51944D01*
X75318Y-51899D01*
X75095Y-51944D01*
X74905Y-52070D01*
X74818Y-52200D01*
X74732Y-52070D01*
X74542Y-51944D01*
X74318Y-51899D01*
X74095Y-51944D01*
X73905Y-52070D01*
X73903Y-52073D01*
X73903Y-51568D01*
X77513Y-51568D01*
X78055Y-52110D01*
X78055Y-52110D01*
X78244Y-52236D01*
X78468Y-52281D01*
X80118Y-52281D01*
X80341Y-52236D01*
X80531Y-52110D01*
X80658Y-51920D01*
X80702Y-51696D01*
X80702Y-60246D01*
X80404Y-60370D01*
X80056Y-60717D01*
X79868Y-61170D01*
X79867Y-61661D01*
X80055Y-62115D01*
X80402Y-62463D01*
X80855Y-62651D01*
X81346Y-62651D01*
X81800Y-62464D01*
X82148Y-62117D01*
X82336Y-61663D01*
X82336Y-61172D01*
X82336Y-62722D01*
X68360Y-62722D01*
X68360Y-57628D01*
X68232Y-57319D01*
X67996Y-57083D01*
X67687Y-56954D01*
X67353Y-56954D01*
X67044Y-57082D01*
X66807Y-57318D01*
X66679Y-57627D01*
X66678Y-57961D01*
X66806Y-58270D01*
X67042Y-58507D01*
X67351Y-58635D01*
X67686Y-58635D01*
X67995Y-58508D01*
X68231Y-58272D01*
X68360Y-57963D01*
X68360Y-57628D01*
X68360Y-62722D01*
X65801Y-62722D01*
X65801Y-61172D01*
X65613Y-60719D01*
X65266Y-60371D01*
X65210Y-60348D01*
X65210Y-57628D01*
X65210Y-55030D01*
X65083Y-54721D01*
X64846Y-54484D01*
X64538Y-54356D01*
X64203Y-54356D01*
X63894Y-54483D01*
X63657Y-54720D01*
X63529Y-55028D01*
X63529Y-55363D01*
X63657Y-55672D01*
X63893Y-55909D01*
X64202Y-56037D01*
X64536Y-56037D01*
X64845Y-55909D01*
X65082Y-55673D01*
X65210Y-55364D01*
X65210Y-55030D01*
X65210Y-57628D01*
X65083Y-57319D01*
X64846Y-57083D01*
X64538Y-56954D01*
X64203Y-56954D01*
X63894Y-57082D01*
X63657Y-57318D01*
X63529Y-57627D01*
X63529Y-57961D01*
X63657Y-58270D01*
X63893Y-58507D01*
X64202Y-58635D01*
X64536Y-58635D01*
X64845Y-58508D01*
X65082Y-58272D01*
X65210Y-57963D01*
X65210Y-57628D01*
X65210Y-60348D01*
X64813Y-60183D01*
X64322Y-60182D01*
X63868Y-60370D01*
X63521Y-60717D01*
X63332Y-61170D01*
X63332Y-61661D01*
X63519Y-62115D01*
X63866Y-62463D01*
X64320Y-62651D01*
X64811Y-62651D01*
X65265Y-62464D01*
X65612Y-62117D01*
X65800Y-61663D01*
X65801Y-61172D01*
X65801Y-62722D01*
X63261Y-62722D01*
X63261Y-43576D01*
X82407Y-43576D01*
X82407Y-62722D01*
X82407Y-62722D01*
G37*
G54D20*
X82407Y-62722D02*
X82336Y-62722D01*
X82336Y-61172D01*
X82336Y-44637D01*
X82149Y-44183D01*
X81802Y-43836D01*
X81348Y-43647D01*
X80857Y-43647D01*
X80404Y-43834D01*
X80056Y-44181D01*
X79868Y-44635D01*
X79867Y-45126D01*
X80055Y-45580D01*
X80402Y-45927D01*
X80855Y-46115D01*
X81346Y-46116D01*
X81800Y-45928D01*
X82148Y-45581D01*
X82336Y-45128D01*
X82336Y-44637D01*
X82336Y-61172D01*
X82149Y-60719D01*
X81802Y-60371D01*
X81348Y-60183D01*
X80857Y-60182D01*
X80702Y-60246D01*
X80702Y-51696D01*
X80658Y-51473D01*
X80643Y-51450D01*
X80643Y-48592D01*
X80563Y-48399D01*
X80415Y-48252D01*
X80222Y-48171D01*
X80014Y-48171D01*
X79821Y-48251D01*
X79673Y-48399D01*
X79593Y-48591D01*
X79593Y-48800D01*
X79672Y-48993D01*
X79820Y-49141D01*
X80013Y-49221D01*
X80222Y-49221D01*
X80415Y-49142D01*
X80562Y-48994D01*
X80643Y-48801D01*
X80643Y-48592D01*
X80643Y-51450D01*
X80531Y-51283D01*
X80341Y-51156D01*
X80118Y-51112D01*
X78710Y-51112D01*
X78169Y-50570D01*
X77979Y-50444D01*
X77755Y-50399D01*
X77755Y-50399D01*
X75868Y-50399D01*
X75868Y-49375D01*
X75785Y-49173D01*
X75630Y-49018D01*
X75428Y-48934D01*
X75209Y-48934D01*
X75007Y-49017D01*
X74903Y-49121D01*
X74903Y-47547D01*
X74901Y-47539D01*
X74949Y-47467D01*
X74994Y-47244D01*
X74949Y-47020D01*
X74887Y-46927D01*
X74887Y-45567D01*
X75019Y-45699D01*
X75203Y-45775D01*
X75402Y-45775D01*
X75586Y-45699D01*
X75726Y-45559D01*
X75803Y-45375D01*
X75803Y-45176D01*
X75727Y-44992D01*
X75586Y-44851D01*
X75403Y-44775D01*
X75204Y-44775D01*
X75020Y-44851D01*
X74879Y-44991D01*
X74846Y-45070D01*
X74843Y-45051D01*
X74803Y-44991D01*
X74803Y-44976D01*
X74765Y-44884D01*
X74694Y-44813D01*
X74603Y-44775D01*
X74587Y-44775D01*
X74526Y-44735D01*
X74303Y-44690D01*
X74079Y-44735D01*
X74019Y-44775D01*
X74003Y-44775D01*
X73911Y-44813D01*
X73841Y-44883D01*
X73803Y-44975D01*
X73803Y-44991D01*
X73763Y-45051D01*
X73718Y-45275D01*
X73718Y-46856D01*
X65801Y-46856D01*
X65801Y-44637D01*
X65613Y-44183D01*
X65266Y-43836D01*
X64813Y-43647D01*
X64322Y-43647D01*
X63868Y-43834D01*
X63521Y-44181D01*
X63332Y-44635D01*
X63332Y-45126D01*
X63519Y-45580D01*
X63866Y-45927D01*
X64320Y-46115D01*
X64811Y-46116D01*
X65265Y-45928D01*
X65612Y-45581D01*
X65800Y-45128D01*
X65801Y-44637D01*
X65801Y-46856D01*
X65190Y-46856D01*
X65063Y-46728D01*
X64754Y-46600D01*
X64420Y-46600D01*
X64111Y-46727D01*
X63874Y-46964D01*
X63746Y-47273D01*
X63745Y-47607D01*
X63873Y-47916D01*
X64109Y-48153D01*
X64418Y-48281D01*
X64753Y-48281D01*
X65062Y-48153D01*
X65190Y-48025D01*
X73734Y-48025D01*
X73734Y-49177D01*
X73704Y-49169D01*
X73634Y-49239D01*
X73634Y-49098D01*
X73606Y-49002D01*
X73400Y-48929D01*
X73182Y-48940D01*
X73031Y-49002D01*
X73003Y-49098D01*
X73318Y-49413D01*
X73634Y-49098D01*
X73634Y-49239D01*
X73389Y-49484D01*
X73704Y-49799D01*
X73800Y-49772D01*
X73807Y-49751D01*
X73905Y-49897D01*
X74095Y-50024D01*
X74318Y-50068D01*
X74542Y-50024D01*
X74732Y-49897D01*
X74832Y-49747D01*
X74852Y-49795D01*
X75006Y-49950D01*
X75209Y-50034D01*
X75427Y-50034D01*
X75630Y-49950D01*
X75784Y-49796D01*
X75868Y-49594D01*
X75868Y-49375D01*
X75868Y-50399D01*
X73634Y-50399D01*
X73634Y-49870D01*
X73318Y-49554D01*
X73248Y-49625D01*
X73248Y-49484D01*
X72932Y-49169D01*
X72837Y-49196D01*
X72817Y-49251D01*
X72785Y-49173D01*
X72630Y-49018D01*
X72428Y-48934D01*
X72209Y-48934D01*
X72007Y-49017D01*
X71852Y-49172D01*
X71768Y-49374D01*
X71768Y-49593D01*
X71852Y-49795D01*
X72006Y-49950D01*
X72209Y-50034D01*
X72427Y-50034D01*
X72630Y-49950D01*
X72784Y-49796D01*
X72816Y-49720D01*
X72837Y-49772D01*
X72932Y-49799D01*
X73248Y-49484D01*
X73248Y-49625D01*
X73003Y-49870D01*
X73031Y-49965D01*
X73237Y-50039D01*
X73455Y-50028D01*
X73606Y-49965D01*
X73634Y-49870D01*
X73634Y-50399D01*
X73425Y-50399D01*
X73201Y-50444D01*
X73011Y-50570D01*
X73011Y-50570D01*
X72905Y-50677D01*
X72778Y-50866D01*
X72734Y-51090D01*
X72734Y-51090D01*
X72734Y-51961D01*
X72668Y-51934D01*
X72569Y-51934D01*
X71969Y-51934D01*
X71877Y-51972D01*
X71807Y-52042D01*
X71768Y-52134D01*
X71768Y-52233D01*
X71768Y-52833D01*
X71806Y-52925D01*
X71877Y-52996D01*
X71968Y-53034D01*
X72068Y-53034D01*
X72668Y-53034D01*
X72734Y-53007D01*
X72734Y-53155D01*
X71381Y-53155D01*
X71158Y-53200D01*
X70968Y-53326D01*
X70841Y-53516D01*
X70797Y-53740D01*
X70841Y-53963D01*
X70968Y-54153D01*
X71158Y-54280D01*
X71381Y-54324D01*
X73228Y-54324D01*
X73228Y-54324D01*
X73228Y-54324D01*
X73452Y-54280D01*
X73641Y-54153D01*
X73732Y-54063D01*
X73732Y-54063D01*
X73732Y-54063D01*
X73734Y-54060D01*
X73734Y-54612D01*
X68966Y-54612D01*
X68966Y-53740D01*
X68966Y-51452D01*
X68922Y-51229D01*
X68795Y-51039D01*
X68795Y-51039D01*
X68720Y-50964D01*
X68530Y-50837D01*
X68307Y-50793D01*
X68307Y-50793D01*
X65427Y-50793D01*
X65427Y-49242D01*
X65299Y-48933D01*
X65063Y-48697D01*
X64754Y-48569D01*
X64420Y-48568D01*
X64111Y-48696D01*
X63874Y-48932D01*
X63746Y-49241D01*
X63745Y-49575D01*
X63873Y-49884D01*
X64109Y-50121D01*
X64418Y-50249D01*
X64753Y-50250D01*
X65062Y-50122D01*
X65298Y-49886D01*
X65427Y-49577D01*
X65427Y-49242D01*
X65427Y-50793D01*
X65190Y-50793D01*
X65063Y-50665D01*
X64754Y-50537D01*
X64420Y-50537D01*
X64111Y-50664D01*
X63874Y-50901D01*
X63746Y-51210D01*
X63745Y-51544D01*
X63873Y-51853D01*
X64109Y-52090D01*
X64418Y-52218D01*
X64753Y-52218D01*
X65062Y-52090D01*
X65190Y-51962D01*
X67797Y-51962D01*
X67797Y-53740D01*
X67841Y-53963D01*
X67968Y-54153D01*
X68158Y-54280D01*
X68381Y-54324D01*
X68605Y-54280D01*
X68795Y-54153D01*
X68922Y-53963D01*
X68966Y-53740D01*
X68966Y-54612D01*
X68123Y-54612D01*
X67996Y-54484D01*
X67687Y-54356D01*
X67353Y-54356D01*
X67044Y-54483D01*
X66807Y-54720D01*
X66679Y-55028D01*
X66678Y-55363D01*
X66806Y-55672D01*
X67042Y-55909D01*
X67351Y-56037D01*
X67686Y-56037D01*
X67995Y-55909D01*
X68123Y-55781D01*
X74259Y-55781D01*
X74318Y-55793D01*
X74542Y-55748D01*
X74542Y-55748D01*
X74732Y-55622D01*
X74734Y-55619D01*
X74734Y-56177D01*
X74734Y-56177D01*
X74778Y-56400D01*
X74905Y-56590D01*
X75043Y-56728D01*
X75043Y-56728D01*
X75232Y-56855D01*
X75456Y-56899D01*
X75456Y-56899D01*
X75456Y-56899D01*
X77755Y-56899D01*
X77979Y-56855D01*
X78001Y-56840D01*
X78395Y-56840D01*
X78487Y-56802D01*
X78558Y-56732D01*
X78596Y-56640D01*
X78596Y-56541D01*
X78596Y-55989D01*
X78558Y-55897D01*
X78488Y-55827D01*
X78457Y-55814D01*
X78487Y-55802D01*
X78558Y-55732D01*
X78596Y-55640D01*
X78596Y-55541D01*
X78596Y-54989D01*
X78558Y-54897D01*
X78488Y-54827D01*
X78457Y-54814D01*
X78488Y-54802D01*
X78558Y-54731D01*
X78596Y-54640D01*
X78596Y-53989D01*
X78558Y-53897D01*
X78488Y-53827D01*
X78396Y-53789D01*
X78296Y-53789D01*
X77868Y-53789D01*
X77805Y-53851D01*
X77805Y-54264D01*
X78533Y-54264D01*
X78596Y-54202D01*
X78596Y-53989D01*
X78596Y-54640D01*
X78596Y-54427D01*
X78533Y-54364D01*
X77805Y-54364D01*
X77805Y-54372D01*
X77705Y-54372D01*
X77705Y-54364D01*
X77705Y-54264D01*
X77705Y-53851D01*
X77643Y-53789D01*
X77214Y-53789D01*
X77115Y-53789D01*
X77023Y-53827D01*
X76953Y-53897D01*
X76915Y-53989D01*
X76915Y-54202D01*
X76977Y-54264D01*
X77705Y-54264D01*
X77705Y-54364D01*
X76977Y-54364D01*
X76915Y-54427D01*
X76915Y-54640D01*
X76953Y-54731D01*
X77023Y-54802D01*
X77053Y-54814D01*
X77023Y-54827D01*
X76953Y-54897D01*
X76915Y-54989D01*
X76915Y-55088D01*
X76915Y-55640D01*
X76952Y-55730D01*
X75903Y-55730D01*
X75903Y-52484D01*
X75859Y-52260D01*
X75732Y-52070D01*
X75542Y-51944D01*
X75318Y-51899D01*
X75095Y-51944D01*
X74905Y-52070D01*
X74818Y-52200D01*
X74732Y-52070D01*
X74542Y-51944D01*
X74318Y-51899D01*
X74095Y-51944D01*
X73905Y-52070D01*
X73903Y-52073D01*
X73903Y-51568D01*
X77513Y-51568D01*
X78055Y-52110D01*
X78055Y-52110D01*
X78244Y-52236D01*
X78468Y-52281D01*
X80118Y-52281D01*
X80341Y-52236D01*
X80531Y-52110D01*
X80658Y-51920D01*
X80702Y-51696D01*
X80702Y-60246D01*
X80404Y-60370D01*
X80056Y-60717D01*
X79868Y-61170D01*
X79867Y-61661D01*
X80055Y-62115D01*
X80402Y-62463D01*
X80855Y-62651D01*
X81346Y-62651D01*
X81800Y-62464D01*
X82148Y-62117D01*
X82336Y-61663D01*
X82336Y-61172D01*
X82336Y-62722D01*
X68360Y-62722D01*
X68360Y-57628D01*
X68232Y-57319D01*
X67996Y-57083D01*
X67687Y-56954D01*
X67353Y-56954D01*
X67044Y-57082D01*
X66807Y-57318D01*
X66679Y-57627D01*
X66678Y-57961D01*
X66806Y-58270D01*
X67042Y-58507D01*
X67351Y-58635D01*
X67686Y-58635D01*
X67995Y-58508D01*
X68231Y-58272D01*
X68360Y-57963D01*
X68360Y-57628D01*
X68360Y-62722D01*
X65801Y-62722D01*
X65801Y-61172D01*
X65613Y-60719D01*
X65266Y-60371D01*
X65210Y-60348D01*
X65210Y-57628D01*
X65210Y-55030D01*
X65083Y-54721D01*
X64846Y-54484D01*
X64538Y-54356D01*
X64203Y-54356D01*
X63894Y-54483D01*
X63657Y-54720D01*
X63529Y-55028D01*
X63529Y-55363D01*
X63657Y-55672D01*
X63893Y-55909D01*
X64202Y-56037D01*
X64536Y-56037D01*
X64845Y-55909D01*
X65082Y-55673D01*
X65210Y-55364D01*
X65210Y-55030D01*
X65210Y-57628D01*
X65083Y-57319D01*
X64846Y-57083D01*
X64538Y-56954D01*
X64203Y-56954D01*
X63894Y-57082D01*
X63657Y-57318D01*
X63529Y-57627D01*
X63529Y-57961D01*
X63657Y-58270D01*
X63893Y-58507D01*
X64202Y-58635D01*
X64536Y-58635D01*
X64845Y-58508D01*
X65082Y-58272D01*
X65210Y-57963D01*
X65210Y-57628D01*
X65210Y-60348D01*
X64813Y-60183D01*
X64322Y-60182D01*
X63868Y-60370D01*
X63521Y-60717D01*
X63332Y-61170D01*
X63332Y-61661D01*
X63519Y-62115D01*
X63866Y-62463D01*
X64320Y-62651D01*
X64811Y-62651D01*
X65265Y-62464D01*
X65612Y-62117D01*
X65800Y-61663D01*
X65801Y-61172D01*
X65801Y-62722D01*
X63261Y-62722D01*
X63261Y-43576D01*
X82407Y-43576D01*
X82407Y-62722D01*
M02*
