G04 (created by PCBNEW (2014-01-10 BZR 4027)-stable) date Tuesday, May 06, 2014 'pmt' 10:56:48 pm*
%MOIN*%
G04 Gerber Fmt 3.4, Leading zero omitted, Abs format*
%FSLAX34Y34*%
G01*
G70*
G90*
G04 APERTURE LIST*
%ADD10C,0.00590551*%
%ADD11C,0.07*%
%ADD12R,0.07X0.07*%
%ADD13C,0.055*%
%ADD14R,0.055X0.055*%
%ADD15C,0.19685*%
%ADD16C,0.16*%
%ADD17R,0.11811X0.0551181*%
%ADD18C,0.05*%
%ADD19R,0.05X0.05*%
G04 APERTURE END LIST*
G54D10*
G54D11*
X60000Y-28472D03*
G54D12*
X64000Y-28472D03*
G54D11*
X58000Y-33472D03*
G54D12*
X62000Y-33472D03*
G54D11*
X54000Y-40472D03*
G54D12*
X58000Y-40472D03*
G54D13*
X64000Y-42972D03*
X64000Y-39972D03*
X62000Y-42972D03*
X62000Y-39972D03*
X60000Y-42972D03*
X60000Y-39972D03*
G54D14*
X61500Y-37472D03*
G54D13*
X60500Y-37472D03*
X60500Y-38472D03*
G54D14*
X64500Y-35972D03*
G54D13*
X63500Y-35972D03*
X63500Y-36972D03*
G54D14*
X67500Y-34472D03*
G54D13*
X66500Y-34472D03*
X66500Y-35472D03*
G54D11*
X54559Y-28972D03*
X54559Y-31972D03*
X53559Y-31972D03*
X53559Y-28972D03*
X58559Y-31972D03*
X58559Y-28972D03*
X54559Y-34972D03*
X54559Y-37972D03*
X53559Y-37972D03*
X53559Y-34972D03*
X58559Y-37972D03*
X58559Y-34972D03*
X54559Y-41972D03*
X54559Y-44972D03*
X53559Y-44972D03*
X53559Y-41972D03*
X58559Y-44972D03*
X58559Y-41972D03*
G54D15*
X67322Y-29133D03*
G54D16*
X67322Y-45669D03*
X50787Y-45669D03*
G54D17*
X51000Y-44000D03*
X51000Y-43000D03*
X51000Y-42000D03*
X51000Y-38472D03*
X51000Y-37472D03*
X51000Y-36472D03*
X50944Y-32968D03*
X50944Y-31968D03*
X50944Y-30968D03*
G54D16*
X50787Y-29133D03*
G54D18*
X63500Y-45472D03*
X64500Y-45472D03*
G54D19*
X62500Y-45472D03*
G54D18*
X65500Y-45472D03*
G54D19*
X67000Y-38972D03*
G54D18*
X67000Y-39972D03*
M02*
