G04 (created by PCBNEW (2014-01-10 BZR 4027)-stable) date Tuesday, May 06, 2014 'pmt' 10:56:48 pm*
%MOIN*%
G04 Gerber Fmt 3.4, Leading zero omitted, Abs format*
%FSLAX34Y34*%
G01*
G70*
G90*
G04 APERTURE LIST*
%ADD10C,0.00590551*%
%ADD11C,0.011811*%
%ADD12C,0.012*%
%ADD13C,0.008*%
%ADD14C,0.015*%
%ADD15C,0.00787402*%
G04 APERTURE END LIST*
G54D10*
G54D11*
X61147Y-30514D02*
X61344Y-31105D01*
X61541Y-30514D01*
X61962Y-31077D02*
X61906Y-31105D01*
X61794Y-31105D01*
X61737Y-31077D01*
X61709Y-31020D01*
X61709Y-30795D01*
X61737Y-30739D01*
X61794Y-30711D01*
X61906Y-30711D01*
X61962Y-30739D01*
X61991Y-30795D01*
X61991Y-30852D01*
X61709Y-30908D01*
X62244Y-31105D02*
X62244Y-30711D01*
X62244Y-30823D02*
X62272Y-30767D01*
X62300Y-30739D01*
X62356Y-30711D01*
X62412Y-30711D01*
X62581Y-31077D02*
X62637Y-31105D01*
X62750Y-31105D01*
X62806Y-31077D01*
X62834Y-31020D01*
X62834Y-30992D01*
X62806Y-30936D01*
X62750Y-30908D01*
X62665Y-30908D01*
X62609Y-30880D01*
X62581Y-30823D01*
X62581Y-30795D01*
X62609Y-30739D01*
X62665Y-30711D01*
X62750Y-30711D01*
X62806Y-30739D01*
X63087Y-31105D02*
X63087Y-30711D01*
X63087Y-30514D02*
X63059Y-30542D01*
X63087Y-30570D01*
X63115Y-30542D01*
X63087Y-30514D01*
X63087Y-30570D01*
X63453Y-31105D02*
X63397Y-31077D01*
X63368Y-31048D01*
X63340Y-30992D01*
X63340Y-30823D01*
X63368Y-30767D01*
X63397Y-30739D01*
X63453Y-30711D01*
X63537Y-30711D01*
X63593Y-30739D01*
X63622Y-30767D01*
X63650Y-30823D01*
X63650Y-30992D01*
X63622Y-31048D01*
X63593Y-31077D01*
X63537Y-31105D01*
X63453Y-31105D01*
X63903Y-30711D02*
X63903Y-31105D01*
X63903Y-30767D02*
X63931Y-30739D01*
X63987Y-30711D01*
X64071Y-30711D01*
X64128Y-30739D01*
X64156Y-30795D01*
X64156Y-31105D01*
X65196Y-31105D02*
X64859Y-31105D01*
X65028Y-31105D02*
X65028Y-30514D01*
X64971Y-30598D01*
X64915Y-30655D01*
X64859Y-30683D01*
X65449Y-31048D02*
X65478Y-31077D01*
X65449Y-31105D01*
X65421Y-31077D01*
X65449Y-31048D01*
X65449Y-31105D01*
X65843Y-30514D02*
X65899Y-30514D01*
X65956Y-30542D01*
X65984Y-30570D01*
X66012Y-30627D01*
X66040Y-30739D01*
X66040Y-30880D01*
X66012Y-30992D01*
X65984Y-31048D01*
X65956Y-31077D01*
X65899Y-31105D01*
X65843Y-31105D01*
X65787Y-31077D01*
X65759Y-31048D01*
X65731Y-30992D01*
X65703Y-30880D01*
X65703Y-30739D01*
X65731Y-30627D01*
X65759Y-30570D01*
X65787Y-30542D01*
X65843Y-30514D01*
X61625Y-32050D02*
X61428Y-31768D01*
X61287Y-32050D02*
X61287Y-31459D01*
X61512Y-31459D01*
X61569Y-31487D01*
X61597Y-31515D01*
X61625Y-31571D01*
X61625Y-31656D01*
X61597Y-31712D01*
X61569Y-31740D01*
X61512Y-31768D01*
X61287Y-31768D01*
X62103Y-32021D02*
X62047Y-32050D01*
X61934Y-32050D01*
X61878Y-32021D01*
X61850Y-31965D01*
X61850Y-31740D01*
X61878Y-31684D01*
X61934Y-31656D01*
X62047Y-31656D01*
X62103Y-31684D01*
X62131Y-31740D01*
X62131Y-31796D01*
X61850Y-31853D01*
X62469Y-32050D02*
X62412Y-32021D01*
X62384Y-31965D01*
X62384Y-31459D01*
X62947Y-32050D02*
X62947Y-31740D01*
X62919Y-31684D01*
X62862Y-31656D01*
X62750Y-31656D01*
X62694Y-31684D01*
X62947Y-32021D02*
X62890Y-32050D01*
X62750Y-32050D01*
X62694Y-32021D01*
X62665Y-31965D01*
X62665Y-31909D01*
X62694Y-31853D01*
X62750Y-31825D01*
X62890Y-31825D01*
X62947Y-31796D01*
X63172Y-31656D02*
X63312Y-32050D01*
X63453Y-31656D02*
X63312Y-32050D01*
X63256Y-32190D01*
X63228Y-32218D01*
X63172Y-32246D01*
X63875Y-31740D02*
X63959Y-31768D01*
X63987Y-31796D01*
X64015Y-31853D01*
X64015Y-31937D01*
X63987Y-31993D01*
X63959Y-32021D01*
X63903Y-32050D01*
X63678Y-32050D01*
X63678Y-31459D01*
X63875Y-31459D01*
X63931Y-31487D01*
X63959Y-31515D01*
X63987Y-31571D01*
X63987Y-31628D01*
X63959Y-31684D01*
X63931Y-31712D01*
X63875Y-31740D01*
X63678Y-31740D01*
X64353Y-32050D02*
X64296Y-32021D01*
X64268Y-31993D01*
X64240Y-31937D01*
X64240Y-31768D01*
X64268Y-31712D01*
X64296Y-31684D01*
X64353Y-31656D01*
X64437Y-31656D01*
X64493Y-31684D01*
X64521Y-31712D01*
X64550Y-31768D01*
X64550Y-31937D01*
X64521Y-31993D01*
X64493Y-32021D01*
X64437Y-32050D01*
X64353Y-32050D01*
X65056Y-32050D02*
X65056Y-31740D01*
X65028Y-31684D01*
X64971Y-31656D01*
X64859Y-31656D01*
X64803Y-31684D01*
X65056Y-32021D02*
X65000Y-32050D01*
X64859Y-32050D01*
X64803Y-32021D01*
X64775Y-31965D01*
X64775Y-31909D01*
X64803Y-31853D01*
X64859Y-31825D01*
X65000Y-31825D01*
X65056Y-31796D01*
X65337Y-32050D02*
X65337Y-31656D01*
X65337Y-31768D02*
X65365Y-31712D01*
X65393Y-31684D01*
X65449Y-31656D01*
X65506Y-31656D01*
X65956Y-32050D02*
X65956Y-31459D01*
X65956Y-32021D02*
X65899Y-32050D01*
X65787Y-32050D01*
X65731Y-32021D01*
X65703Y-31993D01*
X65674Y-31937D01*
X65674Y-31768D01*
X65703Y-31712D01*
X65731Y-31684D01*
X65787Y-31656D01*
X65899Y-31656D01*
X65956Y-31684D01*
G54D12*
X60500Y-27972D02*
X63500Y-27972D01*
X63500Y-27972D02*
X63500Y-28972D01*
X63500Y-28972D02*
X60500Y-28972D01*
X60500Y-28972D02*
X60500Y-27972D01*
X63250Y-27972D02*
X63250Y-28972D01*
X63000Y-28972D02*
X63000Y-27972D01*
X60500Y-28472D02*
X60000Y-28472D01*
X63500Y-28472D02*
X64000Y-28472D01*
X58500Y-32972D02*
X61500Y-32972D01*
X61500Y-32972D02*
X61500Y-33972D01*
X61500Y-33972D02*
X58500Y-33972D01*
X58500Y-33972D02*
X58500Y-32972D01*
X61250Y-32972D02*
X61250Y-33972D01*
X61000Y-33972D02*
X61000Y-32972D01*
X58500Y-33472D02*
X58000Y-33472D01*
X61500Y-33472D02*
X62000Y-33472D01*
X54500Y-39972D02*
X57500Y-39972D01*
X57500Y-39972D02*
X57500Y-40972D01*
X57500Y-40972D02*
X54500Y-40972D01*
X54500Y-40972D02*
X54500Y-39972D01*
X57250Y-39972D02*
X57250Y-40972D01*
X57000Y-40972D02*
X57000Y-39972D01*
X54500Y-40472D02*
X54000Y-40472D01*
X57500Y-40472D02*
X58000Y-40472D01*
G54D13*
X64000Y-42972D02*
X64000Y-42772D01*
X64000Y-39972D02*
X64000Y-40172D01*
X64000Y-40172D02*
X63600Y-40172D01*
X63600Y-40172D02*
X63600Y-42772D01*
X63600Y-42772D02*
X64400Y-42772D01*
X64400Y-42772D02*
X64400Y-40172D01*
X64400Y-40172D02*
X64000Y-40172D01*
X63800Y-42772D02*
X63600Y-42572D01*
X62000Y-42972D02*
X62000Y-42772D01*
X62000Y-39972D02*
X62000Y-40172D01*
X62000Y-40172D02*
X61600Y-40172D01*
X61600Y-40172D02*
X61600Y-42772D01*
X61600Y-42772D02*
X62400Y-42772D01*
X62400Y-42772D02*
X62400Y-40172D01*
X62400Y-40172D02*
X62000Y-40172D01*
X61800Y-42772D02*
X61600Y-42572D01*
X60000Y-42972D02*
X60000Y-42772D01*
X60000Y-39972D02*
X60000Y-40172D01*
X60000Y-40172D02*
X59600Y-40172D01*
X59600Y-40172D02*
X59600Y-42772D01*
X59600Y-42772D02*
X60400Y-42772D01*
X60400Y-42772D02*
X60400Y-40172D01*
X60400Y-40172D02*
X60000Y-40172D01*
X59800Y-42772D02*
X59600Y-42572D01*
G54D12*
X60500Y-38972D02*
X62000Y-37472D01*
X62000Y-37472D02*
X62000Y-36972D01*
X62000Y-36972D02*
X61500Y-36472D01*
X61500Y-36472D02*
X60500Y-36472D01*
X60500Y-36472D02*
X59500Y-37472D01*
X59500Y-37472D02*
X59500Y-38472D01*
X59500Y-38472D02*
X60000Y-38972D01*
X60000Y-38972D02*
X60500Y-38972D01*
X63500Y-37472D02*
X65000Y-35972D01*
X65000Y-35972D02*
X65000Y-35472D01*
X65000Y-35472D02*
X64500Y-34972D01*
X64500Y-34972D02*
X63500Y-34972D01*
X63500Y-34972D02*
X62500Y-35972D01*
X62500Y-35972D02*
X62500Y-36972D01*
X62500Y-36972D02*
X63000Y-37472D01*
X63000Y-37472D02*
X63500Y-37472D01*
X66500Y-35972D02*
X68000Y-34472D01*
X68000Y-34472D02*
X68000Y-33972D01*
X68000Y-33972D02*
X67500Y-33472D01*
X67500Y-33472D02*
X66500Y-33472D01*
X66500Y-33472D02*
X65500Y-34472D01*
X65500Y-34472D02*
X65500Y-35472D01*
X65500Y-35472D02*
X66000Y-35972D01*
X66000Y-35972D02*
X66500Y-35972D01*
G54D10*
X52929Y-32559D02*
X59070Y-32559D01*
X59070Y-32559D02*
X59070Y-28385D01*
X59070Y-28385D02*
X52929Y-28385D01*
X52929Y-28385D02*
X52929Y-32559D01*
X52929Y-38559D02*
X59070Y-38559D01*
X59070Y-38559D02*
X59070Y-34385D01*
X59070Y-34385D02*
X52929Y-34385D01*
X52929Y-34385D02*
X52929Y-38559D01*
X52929Y-45559D02*
X59070Y-45559D01*
X59070Y-45559D02*
X59070Y-41385D01*
X59070Y-41385D02*
X52929Y-41385D01*
X52929Y-41385D02*
X52929Y-45559D01*
G54D14*
X68222Y-29133D02*
G75*
G03X68222Y-29133I-900J0D01*
G74*
G01*
X68222Y-45669D02*
G75*
G03X68222Y-45669I-900J0D01*
G74*
G01*
X51687Y-45669D02*
G75*
G03X51687Y-45669I-900J0D01*
G74*
G01*
G54D12*
X52000Y-44574D02*
X50000Y-44574D01*
X52000Y-41425D02*
X50000Y-41425D01*
X52000Y-44574D02*
X52000Y-41425D01*
X50000Y-44574D02*
X50000Y-41425D01*
X52000Y-39047D02*
X50000Y-39047D01*
X52000Y-35897D02*
X50000Y-35897D01*
X52000Y-39047D02*
X52000Y-35897D01*
X50000Y-39047D02*
X50000Y-35897D01*
X51944Y-33543D02*
X49944Y-33543D01*
X51944Y-30393D02*
X49944Y-30393D01*
X51944Y-33543D02*
X51944Y-30393D01*
X49944Y-33543D02*
X49944Y-30393D01*
G54D14*
X51687Y-29133D02*
G75*
G03X51687Y-29133I-900J0D01*
G74*
G01*
G54D12*
X62000Y-44972D02*
X62000Y-45972D01*
X66000Y-45972D02*
X66000Y-44972D01*
X66000Y-45972D02*
X62000Y-45972D01*
X62000Y-44972D02*
X66000Y-44972D01*
X66500Y-40472D02*
X66500Y-38472D01*
X66500Y-40472D02*
X67500Y-40472D01*
X67500Y-40472D02*
X67500Y-38472D01*
X67500Y-38472D02*
X66500Y-38472D01*
G54D13*
X61704Y-28674D02*
X61704Y-28174D01*
X61800Y-28174D01*
X61857Y-28198D01*
X61895Y-28246D01*
X61914Y-28293D01*
X61933Y-28389D01*
X61933Y-28460D01*
X61914Y-28555D01*
X61895Y-28603D01*
X61857Y-28651D01*
X61800Y-28674D01*
X61704Y-28674D01*
X62066Y-28174D02*
X62314Y-28174D01*
X62180Y-28365D01*
X62238Y-28365D01*
X62276Y-28389D01*
X62295Y-28412D01*
X62314Y-28460D01*
X62314Y-28579D01*
X62295Y-28627D01*
X62276Y-28651D01*
X62238Y-28674D01*
X62123Y-28674D01*
X62085Y-28651D01*
X62066Y-28627D01*
X59704Y-33674D02*
X59704Y-33174D01*
X59800Y-33174D01*
X59857Y-33198D01*
X59895Y-33246D01*
X59914Y-33293D01*
X59933Y-33389D01*
X59933Y-33460D01*
X59914Y-33555D01*
X59895Y-33603D01*
X59857Y-33651D01*
X59800Y-33674D01*
X59704Y-33674D01*
X60085Y-33222D02*
X60104Y-33198D01*
X60142Y-33174D01*
X60238Y-33174D01*
X60276Y-33198D01*
X60295Y-33222D01*
X60314Y-33270D01*
X60314Y-33317D01*
X60295Y-33389D01*
X60066Y-33674D01*
X60314Y-33674D01*
X55704Y-40674D02*
X55704Y-40174D01*
X55800Y-40174D01*
X55857Y-40198D01*
X55895Y-40246D01*
X55914Y-40293D01*
X55933Y-40389D01*
X55933Y-40460D01*
X55914Y-40555D01*
X55895Y-40603D01*
X55857Y-40651D01*
X55800Y-40674D01*
X55704Y-40674D01*
X56314Y-40674D02*
X56085Y-40674D01*
X56200Y-40674D02*
X56200Y-40174D01*
X56161Y-40246D01*
X56123Y-40293D01*
X56085Y-40317D01*
X64272Y-41555D02*
X64010Y-41722D01*
X64272Y-41841D02*
X63722Y-41841D01*
X63722Y-41651D01*
X63748Y-41603D01*
X63775Y-41579D01*
X63827Y-41555D01*
X63905Y-41555D01*
X63958Y-41579D01*
X63984Y-41603D01*
X64010Y-41651D01*
X64010Y-41841D01*
X63722Y-41389D02*
X63722Y-41079D01*
X63932Y-41246D01*
X63932Y-41174D01*
X63958Y-41127D01*
X63984Y-41103D01*
X64036Y-41079D01*
X64167Y-41079D01*
X64220Y-41103D01*
X64246Y-41127D01*
X64272Y-41174D01*
X64272Y-41317D01*
X64246Y-41365D01*
X64220Y-41389D01*
X62272Y-41555D02*
X62010Y-41722D01*
X62272Y-41841D02*
X61722Y-41841D01*
X61722Y-41651D01*
X61748Y-41603D01*
X61775Y-41579D01*
X61827Y-41555D01*
X61905Y-41555D01*
X61958Y-41579D01*
X61984Y-41603D01*
X62010Y-41651D01*
X62010Y-41841D01*
X61775Y-41365D02*
X61748Y-41341D01*
X61722Y-41293D01*
X61722Y-41174D01*
X61748Y-41127D01*
X61775Y-41103D01*
X61827Y-41079D01*
X61879Y-41079D01*
X61958Y-41103D01*
X62272Y-41389D01*
X62272Y-41079D01*
X60272Y-41555D02*
X60010Y-41722D01*
X60272Y-41841D02*
X59722Y-41841D01*
X59722Y-41651D01*
X59748Y-41603D01*
X59775Y-41579D01*
X59827Y-41555D01*
X59905Y-41555D01*
X59958Y-41579D01*
X59984Y-41603D01*
X60010Y-41651D01*
X60010Y-41841D01*
X60272Y-41079D02*
X60272Y-41365D01*
X60272Y-41222D02*
X59722Y-41222D01*
X59801Y-41270D01*
X59853Y-41317D01*
X59879Y-41365D01*
X60461Y-39672D02*
X60423Y-39653D01*
X60385Y-39615D01*
X60328Y-39558D01*
X60290Y-39539D01*
X60252Y-39539D01*
X60271Y-39634D02*
X60233Y-39615D01*
X60195Y-39577D01*
X60176Y-39501D01*
X60176Y-39367D01*
X60195Y-39291D01*
X60233Y-39253D01*
X60271Y-39234D01*
X60347Y-39234D01*
X60385Y-39253D01*
X60423Y-39291D01*
X60442Y-39367D01*
X60442Y-39501D01*
X60423Y-39577D01*
X60385Y-39615D01*
X60347Y-39634D01*
X60271Y-39634D01*
X60823Y-39634D02*
X60595Y-39634D01*
X60709Y-39634D02*
X60709Y-39234D01*
X60671Y-39291D01*
X60633Y-39329D01*
X60595Y-39348D01*
X59414Y-35772D02*
X59433Y-35753D01*
X59471Y-35734D01*
X59566Y-35734D01*
X59604Y-35753D01*
X59623Y-35772D01*
X59642Y-35810D01*
X59642Y-35848D01*
X59623Y-35905D01*
X59395Y-36134D01*
X59642Y-36134D01*
X59814Y-36134D02*
X59814Y-35734D01*
X60042Y-36134D01*
X60042Y-35734D01*
X60404Y-35867D02*
X60404Y-36134D01*
X60309Y-35715D02*
X60214Y-36001D01*
X60461Y-36001D01*
X60785Y-35867D02*
X60785Y-36134D01*
X60690Y-35715D02*
X60595Y-36001D01*
X60842Y-36001D01*
X61071Y-35734D02*
X61109Y-35734D01*
X61147Y-35753D01*
X61166Y-35772D01*
X61185Y-35810D01*
X61204Y-35886D01*
X61204Y-35981D01*
X61185Y-36058D01*
X61166Y-36096D01*
X61147Y-36115D01*
X61109Y-36134D01*
X61071Y-36134D01*
X61033Y-36115D01*
X61014Y-36096D01*
X60995Y-36058D01*
X60976Y-35981D01*
X60976Y-35886D01*
X60995Y-35810D01*
X61014Y-35772D01*
X61033Y-35753D01*
X61071Y-35734D01*
X61585Y-36134D02*
X61357Y-36134D01*
X61471Y-36134D02*
X61471Y-35734D01*
X61433Y-35791D01*
X61395Y-35829D01*
X61357Y-35848D01*
X63461Y-38172D02*
X63423Y-38153D01*
X63385Y-38115D01*
X63328Y-38058D01*
X63290Y-38039D01*
X63252Y-38039D01*
X63271Y-38134D02*
X63233Y-38115D01*
X63195Y-38077D01*
X63176Y-38001D01*
X63176Y-37867D01*
X63195Y-37791D01*
X63233Y-37753D01*
X63271Y-37734D01*
X63347Y-37734D01*
X63385Y-37753D01*
X63423Y-37791D01*
X63442Y-37867D01*
X63442Y-38001D01*
X63423Y-38077D01*
X63385Y-38115D01*
X63347Y-38134D01*
X63271Y-38134D01*
X63595Y-37772D02*
X63614Y-37753D01*
X63652Y-37734D01*
X63747Y-37734D01*
X63785Y-37753D01*
X63804Y-37772D01*
X63823Y-37810D01*
X63823Y-37848D01*
X63804Y-37905D01*
X63576Y-38134D01*
X63823Y-38134D01*
X62414Y-34272D02*
X62433Y-34253D01*
X62471Y-34234D01*
X62566Y-34234D01*
X62604Y-34253D01*
X62623Y-34272D01*
X62642Y-34310D01*
X62642Y-34348D01*
X62623Y-34405D01*
X62395Y-34634D01*
X62642Y-34634D01*
X62814Y-34634D02*
X62814Y-34234D01*
X63042Y-34634D01*
X63042Y-34234D01*
X63404Y-34367D02*
X63404Y-34634D01*
X63309Y-34215D02*
X63214Y-34501D01*
X63461Y-34501D01*
X63785Y-34367D02*
X63785Y-34634D01*
X63690Y-34215D02*
X63595Y-34501D01*
X63842Y-34501D01*
X64071Y-34234D02*
X64109Y-34234D01*
X64147Y-34253D01*
X64166Y-34272D01*
X64185Y-34310D01*
X64204Y-34386D01*
X64204Y-34481D01*
X64185Y-34558D01*
X64166Y-34596D01*
X64147Y-34615D01*
X64109Y-34634D01*
X64071Y-34634D01*
X64033Y-34615D01*
X64014Y-34596D01*
X63995Y-34558D01*
X63976Y-34481D01*
X63976Y-34386D01*
X63995Y-34310D01*
X64014Y-34272D01*
X64033Y-34253D01*
X64071Y-34234D01*
X64585Y-34634D02*
X64357Y-34634D01*
X64471Y-34634D02*
X64471Y-34234D01*
X64433Y-34291D01*
X64395Y-34329D01*
X64357Y-34348D01*
X66461Y-36672D02*
X66423Y-36653D01*
X66385Y-36615D01*
X66328Y-36558D01*
X66290Y-36539D01*
X66252Y-36539D01*
X66271Y-36634D02*
X66233Y-36615D01*
X66195Y-36577D01*
X66176Y-36501D01*
X66176Y-36367D01*
X66195Y-36291D01*
X66233Y-36253D01*
X66271Y-36234D01*
X66347Y-36234D01*
X66385Y-36253D01*
X66423Y-36291D01*
X66442Y-36367D01*
X66442Y-36501D01*
X66423Y-36577D01*
X66385Y-36615D01*
X66347Y-36634D01*
X66271Y-36634D01*
X66576Y-36234D02*
X66823Y-36234D01*
X66690Y-36386D01*
X66747Y-36386D01*
X66785Y-36405D01*
X66804Y-36424D01*
X66823Y-36462D01*
X66823Y-36558D01*
X66804Y-36596D01*
X66785Y-36615D01*
X66747Y-36634D01*
X66633Y-36634D01*
X66595Y-36615D01*
X66576Y-36596D01*
X65414Y-32772D02*
X65433Y-32753D01*
X65471Y-32734D01*
X65566Y-32734D01*
X65604Y-32753D01*
X65623Y-32772D01*
X65642Y-32810D01*
X65642Y-32848D01*
X65623Y-32905D01*
X65395Y-33134D01*
X65642Y-33134D01*
X65814Y-33134D02*
X65814Y-32734D01*
X66042Y-33134D01*
X66042Y-32734D01*
X66404Y-32867D02*
X66404Y-33134D01*
X66309Y-32715D02*
X66214Y-33001D01*
X66461Y-33001D01*
X66785Y-32867D02*
X66785Y-33134D01*
X66690Y-32715D02*
X66595Y-33001D01*
X66842Y-33001D01*
X67071Y-32734D02*
X67109Y-32734D01*
X67147Y-32753D01*
X67166Y-32772D01*
X67185Y-32810D01*
X67204Y-32886D01*
X67204Y-32981D01*
X67185Y-33058D01*
X67166Y-33096D01*
X67147Y-33115D01*
X67109Y-33134D01*
X67071Y-33134D01*
X67033Y-33115D01*
X67014Y-33096D01*
X66995Y-33058D01*
X66976Y-32981D01*
X66976Y-32886D01*
X66995Y-32810D01*
X67014Y-32772D01*
X67033Y-32753D01*
X67071Y-32734D01*
X67585Y-33134D02*
X67357Y-33134D01*
X67471Y-33134D02*
X67471Y-32734D01*
X67433Y-32791D01*
X67395Y-32829D01*
X67357Y-32848D01*
X55755Y-30794D02*
X55622Y-30508D01*
X55527Y-30794D02*
X55527Y-30194D01*
X55679Y-30194D01*
X55717Y-30222D01*
X55736Y-30251D01*
X55755Y-30308D01*
X55755Y-30394D01*
X55736Y-30451D01*
X55717Y-30479D01*
X55679Y-30508D01*
X55527Y-30508D01*
X56117Y-30794D02*
X55927Y-30794D01*
X55927Y-30194D01*
X56212Y-30194D02*
X56460Y-30194D01*
X56327Y-30422D01*
X56384Y-30422D01*
X56422Y-30451D01*
X56441Y-30479D01*
X56460Y-30536D01*
X56460Y-30679D01*
X56441Y-30736D01*
X56422Y-30765D01*
X56384Y-30794D01*
X56269Y-30794D01*
X56231Y-30765D01*
X56212Y-30736D01*
X55834Y-36857D02*
X55701Y-36571D01*
X55605Y-36857D02*
X55605Y-36257D01*
X55758Y-36257D01*
X55796Y-36285D01*
X55815Y-36314D01*
X55834Y-36371D01*
X55834Y-36457D01*
X55815Y-36514D01*
X55796Y-36542D01*
X55758Y-36571D01*
X55605Y-36571D01*
X56196Y-36857D02*
X56005Y-36857D01*
X56005Y-36257D01*
X56310Y-36314D02*
X56329Y-36285D01*
X56367Y-36257D01*
X56462Y-36257D01*
X56501Y-36285D01*
X56520Y-36314D01*
X56539Y-36371D01*
X56539Y-36428D01*
X56520Y-36514D01*
X56291Y-36857D01*
X56539Y-36857D01*
X55755Y-43786D02*
X55622Y-43500D01*
X55527Y-43786D02*
X55527Y-43186D01*
X55679Y-43186D01*
X55717Y-43214D01*
X55736Y-43243D01*
X55755Y-43300D01*
X55755Y-43386D01*
X55736Y-43443D01*
X55717Y-43471D01*
X55679Y-43500D01*
X55527Y-43500D01*
X56117Y-43786D02*
X55927Y-43786D01*
X55927Y-43186D01*
X56460Y-43786D02*
X56231Y-43786D01*
X56346Y-43786D02*
X56346Y-43186D01*
X56308Y-43271D01*
X56269Y-43329D01*
X56231Y-43357D01*
G54D15*
X63220Y-46667D02*
X63201Y-46700D01*
X63144Y-46732D01*
X63106Y-46732D01*
X63049Y-46700D01*
X63011Y-46635D01*
X62992Y-46570D01*
X62973Y-46440D01*
X62973Y-46343D01*
X62992Y-46213D01*
X63011Y-46148D01*
X63049Y-46083D01*
X63106Y-46050D01*
X63144Y-46050D01*
X63201Y-46083D01*
X63220Y-46115D01*
X63449Y-46732D02*
X63411Y-46700D01*
X63392Y-46667D01*
X63373Y-46602D01*
X63373Y-46407D01*
X63392Y-46343D01*
X63411Y-46310D01*
X63449Y-46278D01*
X63506Y-46278D01*
X63544Y-46310D01*
X63563Y-46343D01*
X63582Y-46407D01*
X63582Y-46602D01*
X63563Y-46667D01*
X63544Y-46700D01*
X63506Y-46732D01*
X63449Y-46732D01*
X63754Y-46278D02*
X63754Y-46732D01*
X63754Y-46343D02*
X63773Y-46310D01*
X63811Y-46278D01*
X63868Y-46278D01*
X63906Y-46310D01*
X63925Y-46375D01*
X63925Y-46732D01*
X64058Y-46278D02*
X64211Y-46278D01*
X64116Y-46050D02*
X64116Y-46635D01*
X64135Y-46700D01*
X64173Y-46732D01*
X64211Y-46732D01*
X64344Y-46732D02*
X64344Y-46278D01*
X64344Y-46407D02*
X64363Y-46343D01*
X64382Y-46310D01*
X64420Y-46278D01*
X64458Y-46278D01*
X64649Y-46732D02*
X64611Y-46700D01*
X64592Y-46667D01*
X64573Y-46602D01*
X64573Y-46407D01*
X64592Y-46343D01*
X64611Y-46310D01*
X64649Y-46278D01*
X64706Y-46278D01*
X64744Y-46310D01*
X64763Y-46343D01*
X64782Y-46407D01*
X64782Y-46602D01*
X64763Y-46667D01*
X64744Y-46700D01*
X64706Y-46732D01*
X64649Y-46732D01*
X65011Y-46732D02*
X64973Y-46700D01*
X64954Y-46635D01*
X64954Y-46050D01*
X65373Y-46732D02*
X65144Y-46732D01*
X65258Y-46732D02*
X65258Y-46050D01*
X65220Y-46148D01*
X65182Y-46213D01*
X65144Y-46245D01*
G54D12*
X65990Y-40841D02*
X65390Y-40841D01*
X65390Y-40612D01*
X65419Y-40555D01*
X65448Y-40527D01*
X65505Y-40498D01*
X65590Y-40498D01*
X65648Y-40527D01*
X65676Y-40555D01*
X65705Y-40612D01*
X65705Y-40841D01*
X65990Y-40155D02*
X65962Y-40212D01*
X65933Y-40241D01*
X65876Y-40270D01*
X65705Y-40270D01*
X65648Y-40241D01*
X65619Y-40212D01*
X65590Y-40155D01*
X65590Y-40070D01*
X65619Y-40012D01*
X65648Y-39984D01*
X65705Y-39955D01*
X65876Y-39955D01*
X65933Y-39984D01*
X65962Y-40012D01*
X65990Y-40070D01*
X65990Y-40155D01*
X65590Y-39755D02*
X65990Y-39641D01*
X65705Y-39527D01*
X65990Y-39412D01*
X65590Y-39298D01*
X65962Y-38841D02*
X65990Y-38898D01*
X65990Y-39012D01*
X65962Y-39070D01*
X65905Y-39098D01*
X65676Y-39098D01*
X65619Y-39070D01*
X65590Y-39012D01*
X65590Y-38898D01*
X65619Y-38841D01*
X65676Y-38812D01*
X65733Y-38812D01*
X65790Y-39098D01*
X65990Y-38555D02*
X65590Y-38555D01*
X65705Y-38555D02*
X65648Y-38527D01*
X65619Y-38498D01*
X65590Y-38441D01*
X65590Y-38384D01*
X65990Y-37870D02*
X65990Y-38212D01*
X65990Y-38041D02*
X65390Y-38041D01*
X65476Y-38098D01*
X65533Y-38155D01*
X65562Y-38212D01*
M02*
