M48
;DRILL file {Pcbnew (2014-01-10 BZR 4027)-stable} date Tuesday, May 06, 2014 'pmt' 11:00:21 pm
;FORMAT={2:4/ absolute / inch / suppress leading zeros}
FMAT,2
INCH,TZ
T1C0.031
T2C0.032
T3C0.040
T4C0.045
T5C0.120
T6C0.126
%
G90
G05
M72
T1
X50945Y-30969
X50945Y-31969
X50945Y-32969
X51000Y-36472
X51000Y-37472
X51000Y-38472
X51000Y-42000
X51000Y-43000
X51000Y-44000
X62500Y-45472
X63500Y-45472
X64500Y-45472
X65500Y-45472
X67000Y-38972
X67000Y-39972
T2
X60000Y-39972
X60000Y-42972
X60500Y-37472
X60500Y-38472
X61500Y-37472
X62000Y-39972
X62000Y-42972
X63500Y-35972
X63500Y-36972
X64000Y-39972
X64000Y-42972
X64500Y-35972
X66500Y-34472
X66500Y-35472
X67500Y-34472
T3
X54000Y-40472
X58000Y-33472
X58000Y-40472
X60000Y-28472
X62000Y-33472
X64000Y-28472
T4
X53559Y-28972
X53559Y-31972
X53559Y-34972
X53559Y-37972
X53559Y-41972
X53559Y-44972
X54559Y-28972
X54559Y-31972
X54559Y-34972
X54559Y-37972
X54559Y-41972
X54559Y-44972
X58559Y-28972
X58559Y-31972
X58559Y-34972
X58559Y-37972
X58559Y-41972
X58559Y-44972
T5
X50787Y-29134
X50787Y-45669
X67323Y-45669
T6
X67323Y-29134
T0
M30
