G04 (created by PCBNEW (2014-01-10 BZR 4027)-stable) date Tuesday, May 06, 2014 'pmt' 10:56:48 pm*
%MOIN*%
G04 Gerber Fmt 3.4, Leading zero omitted, Abs format*
%FSLAX34Y34*%
G01*
G70*
G90*
G04 APERTURE LIST*
%ADD10C,0.00590551*%
%ADD11C,0.07*%
%ADD12R,0.07X0.07*%
%ADD13C,0.055*%
%ADD14R,0.055X0.055*%
%ADD15C,0.19685*%
%ADD16C,0.16*%
%ADD17R,0.11811X0.0551181*%
%ADD18C,0.05*%
%ADD19R,0.05X0.05*%
%ADD20C,0.01*%
G04 APERTURE END LIST*
G54D10*
G54D11*
X60000Y-28472D03*
G54D12*
X64000Y-28472D03*
G54D11*
X58000Y-33472D03*
G54D12*
X62000Y-33472D03*
G54D11*
X54000Y-40472D03*
G54D12*
X58000Y-40472D03*
G54D13*
X64000Y-42972D03*
X64000Y-39972D03*
X62000Y-42972D03*
X62000Y-39972D03*
X60000Y-42972D03*
X60000Y-39972D03*
G54D14*
X61500Y-37472D03*
G54D13*
X60500Y-37472D03*
X60500Y-38472D03*
G54D14*
X64500Y-35972D03*
G54D13*
X63500Y-35972D03*
X63500Y-36972D03*
G54D14*
X67500Y-34472D03*
G54D13*
X66500Y-34472D03*
X66500Y-35472D03*
G54D11*
X54559Y-28972D03*
X54559Y-31972D03*
X53559Y-31972D03*
X53559Y-28972D03*
X58559Y-31972D03*
X58559Y-28972D03*
X54559Y-34972D03*
X54559Y-37972D03*
X53559Y-37972D03*
X53559Y-34972D03*
X58559Y-37972D03*
X58559Y-34972D03*
X54559Y-41972D03*
X54559Y-44972D03*
X53559Y-44972D03*
X53559Y-41972D03*
X58559Y-44972D03*
X58559Y-41972D03*
G54D15*
X67322Y-29133D03*
G54D16*
X67322Y-45669D03*
X50787Y-45669D03*
G54D17*
X51000Y-44000D03*
X51000Y-43000D03*
X51000Y-42000D03*
X51000Y-38472D03*
X51000Y-37472D03*
X51000Y-36472D03*
X50944Y-32968D03*
X50944Y-31968D03*
X50944Y-30968D03*
G54D16*
X50787Y-29133D03*
G54D18*
X63500Y-45472D03*
X64500Y-45472D03*
G54D19*
X62500Y-45472D03*
G54D18*
X65500Y-45472D03*
G54D19*
X67000Y-38972D03*
G54D18*
X67000Y-39972D03*
G54D10*
G36*
X68627Y-46974D02*
X68557Y-46974D01*
X68557Y-28889D01*
X68369Y-28435D01*
X68022Y-28088D01*
X67569Y-27899D01*
X67078Y-27899D01*
X66624Y-28086D01*
X66277Y-28433D01*
X66088Y-28887D01*
X66088Y-29378D01*
X66275Y-29832D01*
X66622Y-30179D01*
X67076Y-30367D01*
X67567Y-30368D01*
X68021Y-30180D01*
X68368Y-29833D01*
X68556Y-29380D01*
X68557Y-28889D01*
X68557Y-46974D01*
X68373Y-46974D01*
X68373Y-45461D01*
X68213Y-45075D01*
X68025Y-44886D01*
X68025Y-34697D01*
X68025Y-34246D01*
X68024Y-34147D01*
X67986Y-34055D01*
X67916Y-33985D01*
X67824Y-33947D01*
X67612Y-33947D01*
X67550Y-34009D01*
X67550Y-34422D01*
X67962Y-34422D01*
X68025Y-34359D01*
X68025Y-34246D01*
X68025Y-34697D01*
X68025Y-34584D01*
X67962Y-34522D01*
X67550Y-34522D01*
X67550Y-34934D01*
X67612Y-34997D01*
X67824Y-34997D01*
X67916Y-34959D01*
X67986Y-34889D01*
X68024Y-34797D01*
X68025Y-34697D01*
X68025Y-44886D01*
X67918Y-44779D01*
X67532Y-44619D01*
X67500Y-44619D01*
X67500Y-39873D01*
X67500Y-39873D01*
X67500Y-39271D01*
X67500Y-38672D01*
X67462Y-38581D01*
X67450Y-38568D01*
X67450Y-34934D01*
X67450Y-34522D01*
X67442Y-34522D01*
X67442Y-34422D01*
X67450Y-34422D01*
X67450Y-34009D01*
X67387Y-33947D01*
X67175Y-33947D01*
X67083Y-33985D01*
X67013Y-34055D01*
X66975Y-34147D01*
X66974Y-34246D01*
X66974Y-34247D01*
X66945Y-34175D01*
X66797Y-34027D01*
X66604Y-33947D01*
X66396Y-33947D01*
X66203Y-34027D01*
X66055Y-34174D01*
X65975Y-34367D01*
X65974Y-34576D01*
X66054Y-34769D01*
X66202Y-34917D01*
X66335Y-34972D01*
X66203Y-35027D01*
X66055Y-35174D01*
X65975Y-35367D01*
X65974Y-35576D01*
X66054Y-35769D01*
X66202Y-35917D01*
X66395Y-35997D01*
X66603Y-35997D01*
X66797Y-35917D01*
X66944Y-35770D01*
X67024Y-35577D01*
X67025Y-35368D01*
X66945Y-35175D01*
X66797Y-35027D01*
X66664Y-34972D01*
X66797Y-34917D01*
X66944Y-34770D01*
X66974Y-34697D01*
X66974Y-34697D01*
X66975Y-34797D01*
X67013Y-34889D01*
X67083Y-34959D01*
X67175Y-34997D01*
X67387Y-34997D01*
X67450Y-34934D01*
X67450Y-38568D01*
X67391Y-38510D01*
X67299Y-38472D01*
X67200Y-38472D01*
X67112Y-38472D01*
X67050Y-38534D01*
X67050Y-38922D01*
X67437Y-38922D01*
X67500Y-38859D01*
X67500Y-38672D01*
X67500Y-39271D01*
X67500Y-39084D01*
X67437Y-39022D01*
X67050Y-39022D01*
X67050Y-39409D01*
X67112Y-39472D01*
X67200Y-39472D01*
X67299Y-39472D01*
X67391Y-39434D01*
X67462Y-39363D01*
X67500Y-39271D01*
X67500Y-39873D01*
X67424Y-39689D01*
X67283Y-39548D01*
X67099Y-39472D01*
X66950Y-39472D01*
X66950Y-39409D01*
X66950Y-39022D01*
X66950Y-38922D01*
X66950Y-38534D01*
X66887Y-38472D01*
X66799Y-38472D01*
X66700Y-38472D01*
X66608Y-38510D01*
X66537Y-38581D01*
X66499Y-38672D01*
X66500Y-38859D01*
X66562Y-38922D01*
X66950Y-38922D01*
X66950Y-39022D01*
X66562Y-39022D01*
X66500Y-39084D01*
X66499Y-39271D01*
X66537Y-39363D01*
X66608Y-39434D01*
X66700Y-39472D01*
X66799Y-39472D01*
X66887Y-39472D01*
X66950Y-39409D01*
X66950Y-39472D01*
X66900Y-39472D01*
X66717Y-39548D01*
X66576Y-39688D01*
X66500Y-39872D01*
X66499Y-40071D01*
X66575Y-40255D01*
X66716Y-40396D01*
X66900Y-40472D01*
X67099Y-40472D01*
X67282Y-40396D01*
X67423Y-40256D01*
X67499Y-40072D01*
X67500Y-39873D01*
X67500Y-44619D01*
X67114Y-44619D01*
X66728Y-44778D01*
X66433Y-45073D01*
X66273Y-45459D01*
X66272Y-45877D01*
X66432Y-46263D01*
X66727Y-46558D01*
X67113Y-46719D01*
X67530Y-46719D01*
X67916Y-46559D01*
X68212Y-46264D01*
X68372Y-45879D01*
X68373Y-45461D01*
X68373Y-46974D01*
X66004Y-46974D01*
X66004Y-45542D01*
X65993Y-45343D01*
X65939Y-45214D01*
X65849Y-45193D01*
X65778Y-45264D01*
X65778Y-45122D01*
X65757Y-45032D01*
X65569Y-44967D01*
X65371Y-44979D01*
X65242Y-45032D01*
X65221Y-45122D01*
X65500Y-45401D01*
X65778Y-45122D01*
X65778Y-45264D01*
X65570Y-45472D01*
X65849Y-45751D01*
X65939Y-45730D01*
X66004Y-45542D01*
X66004Y-46974D01*
X65778Y-46974D01*
X65778Y-45822D01*
X65500Y-45543D01*
X65429Y-45613D01*
X65429Y-45472D01*
X65150Y-45193D01*
X65060Y-45214D01*
X65025Y-45315D01*
X65025Y-36197D01*
X65025Y-35746D01*
X65024Y-35647D01*
X64986Y-35555D01*
X64916Y-35485D01*
X64824Y-35447D01*
X64612Y-35447D01*
X64600Y-35459D01*
X64600Y-28772D01*
X64600Y-28072D01*
X64562Y-27981D01*
X64491Y-27910D01*
X64399Y-27872D01*
X64300Y-27872D01*
X63600Y-27872D01*
X63508Y-27910D01*
X63438Y-27980D01*
X63400Y-28072D01*
X63399Y-28171D01*
X63399Y-28871D01*
X63437Y-28963D01*
X63508Y-29034D01*
X63600Y-29072D01*
X63699Y-29072D01*
X64399Y-29072D01*
X64491Y-29034D01*
X64561Y-28964D01*
X64599Y-28872D01*
X64600Y-28772D01*
X64600Y-35459D01*
X64550Y-35509D01*
X64550Y-35922D01*
X64962Y-35922D01*
X65025Y-35859D01*
X65025Y-35746D01*
X65025Y-36197D01*
X65025Y-36084D01*
X64962Y-36022D01*
X64550Y-36022D01*
X64550Y-36434D01*
X64612Y-36497D01*
X64824Y-36497D01*
X64916Y-36459D01*
X64986Y-36389D01*
X65024Y-36297D01*
X65025Y-36197D01*
X65025Y-45315D01*
X65000Y-45388D01*
X65000Y-45373D01*
X64924Y-45189D01*
X64783Y-45048D01*
X64599Y-44972D01*
X64525Y-44972D01*
X64525Y-42868D01*
X64525Y-39868D01*
X64450Y-39686D01*
X64450Y-36434D01*
X64450Y-36022D01*
X64442Y-36022D01*
X64442Y-35922D01*
X64450Y-35922D01*
X64450Y-35509D01*
X64387Y-35447D01*
X64175Y-35447D01*
X64083Y-35485D01*
X64013Y-35555D01*
X63975Y-35647D01*
X63974Y-35746D01*
X63974Y-35747D01*
X63945Y-35675D01*
X63797Y-35527D01*
X63604Y-35447D01*
X63396Y-35447D01*
X63203Y-35527D01*
X63055Y-35674D01*
X62975Y-35867D01*
X62974Y-36076D01*
X63054Y-36269D01*
X63202Y-36417D01*
X63335Y-36472D01*
X63203Y-36527D01*
X63055Y-36674D01*
X62975Y-36867D01*
X62974Y-37076D01*
X63054Y-37269D01*
X63202Y-37417D01*
X63395Y-37497D01*
X63603Y-37497D01*
X63797Y-37417D01*
X63944Y-37270D01*
X64024Y-37077D01*
X64025Y-36868D01*
X63945Y-36675D01*
X63797Y-36527D01*
X63664Y-36472D01*
X63797Y-36417D01*
X63944Y-36270D01*
X63974Y-36197D01*
X63974Y-36197D01*
X63975Y-36297D01*
X64013Y-36389D01*
X64083Y-36459D01*
X64175Y-36497D01*
X64387Y-36497D01*
X64450Y-36434D01*
X64450Y-39686D01*
X64445Y-39675D01*
X64297Y-39527D01*
X64104Y-39447D01*
X63896Y-39447D01*
X63703Y-39527D01*
X63555Y-39674D01*
X63475Y-39867D01*
X63474Y-40076D01*
X63554Y-40269D01*
X63702Y-40417D01*
X63895Y-40497D01*
X64103Y-40497D01*
X64297Y-40417D01*
X64444Y-40270D01*
X64524Y-40077D01*
X64525Y-39868D01*
X64525Y-42868D01*
X64445Y-42675D01*
X64297Y-42527D01*
X64104Y-42447D01*
X63896Y-42447D01*
X63703Y-42527D01*
X63555Y-42674D01*
X63475Y-42867D01*
X63474Y-43076D01*
X63554Y-43269D01*
X63702Y-43417D01*
X63895Y-43497D01*
X64103Y-43497D01*
X64297Y-43417D01*
X64444Y-43270D01*
X64524Y-43077D01*
X64525Y-42868D01*
X64525Y-44972D01*
X64400Y-44972D01*
X64217Y-45048D01*
X64076Y-45188D01*
X64000Y-45372D01*
X64000Y-45373D01*
X64000Y-45373D01*
X63924Y-45189D01*
X63783Y-45048D01*
X63599Y-44972D01*
X63400Y-44972D01*
X63217Y-45048D01*
X63076Y-45188D01*
X63000Y-45372D01*
X63000Y-45423D01*
X63000Y-45172D01*
X62962Y-45081D01*
X62891Y-45010D01*
X62799Y-44972D01*
X62700Y-44972D01*
X62600Y-44972D01*
X62600Y-33772D01*
X62600Y-33072D01*
X62562Y-32981D01*
X62491Y-32910D01*
X62399Y-32872D01*
X62300Y-32872D01*
X61600Y-32872D01*
X61508Y-32910D01*
X61438Y-32980D01*
X61400Y-33072D01*
X61399Y-33171D01*
X61399Y-33871D01*
X61437Y-33963D01*
X61508Y-34034D01*
X61600Y-34072D01*
X61699Y-34072D01*
X62399Y-34072D01*
X62491Y-34034D01*
X62561Y-33964D01*
X62599Y-33872D01*
X62600Y-33772D01*
X62600Y-44972D01*
X62525Y-44972D01*
X62525Y-42868D01*
X62525Y-39868D01*
X62445Y-39675D01*
X62297Y-39527D01*
X62104Y-39447D01*
X62025Y-39447D01*
X62025Y-37697D01*
X62025Y-37246D01*
X62024Y-37147D01*
X61986Y-37055D01*
X61916Y-36985D01*
X61824Y-36947D01*
X61612Y-36947D01*
X61550Y-37009D01*
X61550Y-37422D01*
X61962Y-37422D01*
X62025Y-37359D01*
X62025Y-37246D01*
X62025Y-37697D01*
X62025Y-37584D01*
X61962Y-37522D01*
X61550Y-37522D01*
X61550Y-37934D01*
X61612Y-37997D01*
X61824Y-37997D01*
X61916Y-37959D01*
X61986Y-37889D01*
X62024Y-37797D01*
X62025Y-37697D01*
X62025Y-39447D01*
X61896Y-39447D01*
X61703Y-39527D01*
X61555Y-39674D01*
X61475Y-39867D01*
X61474Y-40076D01*
X61554Y-40269D01*
X61702Y-40417D01*
X61895Y-40497D01*
X62103Y-40497D01*
X62297Y-40417D01*
X62444Y-40270D01*
X62524Y-40077D01*
X62525Y-39868D01*
X62525Y-42868D01*
X62445Y-42675D01*
X62297Y-42527D01*
X62104Y-42447D01*
X61896Y-42447D01*
X61703Y-42527D01*
X61555Y-42674D01*
X61475Y-42867D01*
X61474Y-43076D01*
X61554Y-43269D01*
X61702Y-43417D01*
X61895Y-43497D01*
X62103Y-43497D01*
X62297Y-43417D01*
X62444Y-43270D01*
X62524Y-43077D01*
X62525Y-42868D01*
X62525Y-44972D01*
X62200Y-44972D01*
X62108Y-45010D01*
X62038Y-45080D01*
X62000Y-45172D01*
X61999Y-45271D01*
X61999Y-45771D01*
X62037Y-45863D01*
X62108Y-45934D01*
X62200Y-45972D01*
X62299Y-45972D01*
X62799Y-45972D01*
X62891Y-45934D01*
X62961Y-45864D01*
X62999Y-45772D01*
X63000Y-45672D01*
X63000Y-45571D01*
X63075Y-45755D01*
X63216Y-45896D01*
X63400Y-45972D01*
X63599Y-45972D01*
X63782Y-45896D01*
X63923Y-45756D01*
X63999Y-45572D01*
X64000Y-45373D01*
X64000Y-45373D01*
X63999Y-45571D01*
X64075Y-45755D01*
X64216Y-45896D01*
X64400Y-45972D01*
X64599Y-45972D01*
X64782Y-45896D01*
X64923Y-45756D01*
X64999Y-45572D01*
X64999Y-45486D01*
X65006Y-45601D01*
X65060Y-45730D01*
X65150Y-45751D01*
X65429Y-45472D01*
X65429Y-45613D01*
X65221Y-45822D01*
X65242Y-45912D01*
X65430Y-45977D01*
X65628Y-45965D01*
X65757Y-45912D01*
X65778Y-45822D01*
X65778Y-46974D01*
X61450Y-46974D01*
X61450Y-37934D01*
X61450Y-37522D01*
X61442Y-37522D01*
X61442Y-37422D01*
X61450Y-37422D01*
X61450Y-37009D01*
X61387Y-36947D01*
X61175Y-36947D01*
X61083Y-36985D01*
X61013Y-37055D01*
X60975Y-37147D01*
X60974Y-37246D01*
X60974Y-37247D01*
X60945Y-37175D01*
X60797Y-37027D01*
X60604Y-36947D01*
X60600Y-36947D01*
X60600Y-28353D01*
X60508Y-28133D01*
X60340Y-27964D01*
X60119Y-27872D01*
X59881Y-27872D01*
X59660Y-27963D01*
X59491Y-28132D01*
X59400Y-28352D01*
X59399Y-28591D01*
X59491Y-28811D01*
X59659Y-28980D01*
X59880Y-29072D01*
X60118Y-29072D01*
X60339Y-28981D01*
X60508Y-28812D01*
X60599Y-28592D01*
X60600Y-28353D01*
X60600Y-36947D01*
X60396Y-36947D01*
X60203Y-37027D01*
X60055Y-37174D01*
X59975Y-37367D01*
X59974Y-37576D01*
X60054Y-37769D01*
X60202Y-37917D01*
X60335Y-37972D01*
X60203Y-38027D01*
X60055Y-38174D01*
X59975Y-38367D01*
X59974Y-38576D01*
X60054Y-38769D01*
X60202Y-38917D01*
X60395Y-38997D01*
X60603Y-38997D01*
X60797Y-38917D01*
X60944Y-38770D01*
X61024Y-38577D01*
X61025Y-38368D01*
X60945Y-38175D01*
X60797Y-38027D01*
X60664Y-37972D01*
X60797Y-37917D01*
X60944Y-37770D01*
X60974Y-37697D01*
X60974Y-37697D01*
X60975Y-37797D01*
X61013Y-37889D01*
X61083Y-37959D01*
X61175Y-37997D01*
X61387Y-37997D01*
X61450Y-37934D01*
X61450Y-46974D01*
X60525Y-46974D01*
X60525Y-42868D01*
X60525Y-39868D01*
X60445Y-39675D01*
X60297Y-39527D01*
X60104Y-39447D01*
X59896Y-39447D01*
X59703Y-39527D01*
X59555Y-39674D01*
X59475Y-39867D01*
X59474Y-40076D01*
X59554Y-40269D01*
X59702Y-40417D01*
X59895Y-40497D01*
X60103Y-40497D01*
X60297Y-40417D01*
X60444Y-40270D01*
X60524Y-40077D01*
X60525Y-39868D01*
X60525Y-42868D01*
X60445Y-42675D01*
X60297Y-42527D01*
X60104Y-42447D01*
X59896Y-42447D01*
X59703Y-42527D01*
X59555Y-42674D01*
X59475Y-42867D01*
X59474Y-43076D01*
X59554Y-43269D01*
X59702Y-43417D01*
X59895Y-43497D01*
X60103Y-43497D01*
X60297Y-43417D01*
X60444Y-43270D01*
X60524Y-43077D01*
X60525Y-42868D01*
X60525Y-46974D01*
X59159Y-46974D01*
X59159Y-44853D01*
X59159Y-41853D01*
X59159Y-37853D01*
X59159Y-34853D01*
X59159Y-31853D01*
X59159Y-28853D01*
X59068Y-28633D01*
X58899Y-28464D01*
X58678Y-28372D01*
X58440Y-28372D01*
X58219Y-28463D01*
X58050Y-28632D01*
X57959Y-28852D01*
X57958Y-29091D01*
X58050Y-29311D01*
X58218Y-29480D01*
X58439Y-29572D01*
X58677Y-29572D01*
X58898Y-29481D01*
X59067Y-29312D01*
X59158Y-29092D01*
X59159Y-28853D01*
X59159Y-31853D01*
X59068Y-31633D01*
X58899Y-31464D01*
X58678Y-31372D01*
X58440Y-31372D01*
X58219Y-31463D01*
X58050Y-31632D01*
X57959Y-31852D01*
X57958Y-32091D01*
X58050Y-32311D01*
X58218Y-32480D01*
X58439Y-32572D01*
X58677Y-32572D01*
X58898Y-32481D01*
X59067Y-32312D01*
X59158Y-32092D01*
X59159Y-31853D01*
X59159Y-34853D01*
X59068Y-34633D01*
X58899Y-34464D01*
X58678Y-34372D01*
X58600Y-34372D01*
X58600Y-33353D01*
X58508Y-33133D01*
X58340Y-32964D01*
X58119Y-32872D01*
X57881Y-32872D01*
X57660Y-32963D01*
X57491Y-33132D01*
X57400Y-33352D01*
X57399Y-33591D01*
X57491Y-33811D01*
X57659Y-33980D01*
X57880Y-34072D01*
X58118Y-34072D01*
X58339Y-33981D01*
X58508Y-33812D01*
X58599Y-33592D01*
X58600Y-33353D01*
X58600Y-34372D01*
X58440Y-34372D01*
X58219Y-34463D01*
X58050Y-34632D01*
X57959Y-34852D01*
X57958Y-35091D01*
X58050Y-35311D01*
X58218Y-35480D01*
X58439Y-35572D01*
X58677Y-35572D01*
X58898Y-35481D01*
X59067Y-35312D01*
X59158Y-35092D01*
X59159Y-34853D01*
X59159Y-37853D01*
X59068Y-37633D01*
X58899Y-37464D01*
X58678Y-37372D01*
X58440Y-37372D01*
X58219Y-37463D01*
X58050Y-37632D01*
X57959Y-37852D01*
X57958Y-38091D01*
X58050Y-38311D01*
X58218Y-38480D01*
X58439Y-38572D01*
X58677Y-38572D01*
X58898Y-38481D01*
X59067Y-38312D01*
X59158Y-38092D01*
X59159Y-37853D01*
X59159Y-41853D01*
X59068Y-41633D01*
X58899Y-41464D01*
X58678Y-41372D01*
X58600Y-41372D01*
X58600Y-40772D01*
X58600Y-40072D01*
X58562Y-39981D01*
X58491Y-39910D01*
X58399Y-39872D01*
X58300Y-39872D01*
X57600Y-39872D01*
X57508Y-39910D01*
X57438Y-39980D01*
X57400Y-40072D01*
X57399Y-40171D01*
X57399Y-40871D01*
X57437Y-40963D01*
X57508Y-41034D01*
X57600Y-41072D01*
X57699Y-41072D01*
X58399Y-41072D01*
X58491Y-41034D01*
X58561Y-40964D01*
X58599Y-40872D01*
X58600Y-40772D01*
X58600Y-41372D01*
X58440Y-41372D01*
X58219Y-41463D01*
X58050Y-41632D01*
X57959Y-41852D01*
X57958Y-42091D01*
X58050Y-42311D01*
X58218Y-42480D01*
X58439Y-42572D01*
X58677Y-42572D01*
X58898Y-42481D01*
X59067Y-42312D01*
X59158Y-42092D01*
X59159Y-41853D01*
X59159Y-44853D01*
X59068Y-44633D01*
X58899Y-44464D01*
X58678Y-44372D01*
X58440Y-44372D01*
X58219Y-44463D01*
X58050Y-44632D01*
X57959Y-44852D01*
X57958Y-45091D01*
X58050Y-45311D01*
X58218Y-45480D01*
X58439Y-45572D01*
X58677Y-45572D01*
X58898Y-45481D01*
X59067Y-45312D01*
X59158Y-45092D01*
X59159Y-44853D01*
X59159Y-46974D01*
X55159Y-46974D01*
X55159Y-44853D01*
X55159Y-41853D01*
X55159Y-37853D01*
X55159Y-34853D01*
X55159Y-31853D01*
X55159Y-28853D01*
X55068Y-28633D01*
X54899Y-28464D01*
X54678Y-28372D01*
X54440Y-28372D01*
X54219Y-28463D01*
X54058Y-28623D01*
X53899Y-28464D01*
X53678Y-28372D01*
X53440Y-28372D01*
X53219Y-28463D01*
X53050Y-28632D01*
X52959Y-28852D01*
X52958Y-29091D01*
X53050Y-29311D01*
X53218Y-29480D01*
X53439Y-29572D01*
X53677Y-29572D01*
X53898Y-29481D01*
X54059Y-29320D01*
X54218Y-29480D01*
X54439Y-29572D01*
X54677Y-29572D01*
X54898Y-29481D01*
X55067Y-29312D01*
X55158Y-29092D01*
X55159Y-28853D01*
X55159Y-31853D01*
X55068Y-31633D01*
X54899Y-31464D01*
X54678Y-31372D01*
X54440Y-31372D01*
X54219Y-31463D01*
X54058Y-31623D01*
X53899Y-31464D01*
X53678Y-31372D01*
X53440Y-31372D01*
X53219Y-31463D01*
X53050Y-31632D01*
X52959Y-31852D01*
X52958Y-32091D01*
X53050Y-32311D01*
X53218Y-32480D01*
X53439Y-32572D01*
X53677Y-32572D01*
X53898Y-32481D01*
X54059Y-32320D01*
X54218Y-32480D01*
X54439Y-32572D01*
X54677Y-32572D01*
X54898Y-32481D01*
X55067Y-32312D01*
X55158Y-32092D01*
X55159Y-31853D01*
X55159Y-34853D01*
X55068Y-34633D01*
X54899Y-34464D01*
X54678Y-34372D01*
X54440Y-34372D01*
X54219Y-34463D01*
X54058Y-34623D01*
X53899Y-34464D01*
X53678Y-34372D01*
X53440Y-34372D01*
X53219Y-34463D01*
X53050Y-34632D01*
X52959Y-34852D01*
X52958Y-35091D01*
X53050Y-35311D01*
X53218Y-35480D01*
X53439Y-35572D01*
X53677Y-35572D01*
X53898Y-35481D01*
X54059Y-35320D01*
X54218Y-35480D01*
X54439Y-35572D01*
X54677Y-35572D01*
X54898Y-35481D01*
X55067Y-35312D01*
X55158Y-35092D01*
X55159Y-34853D01*
X55159Y-37853D01*
X55068Y-37633D01*
X54899Y-37464D01*
X54678Y-37372D01*
X54440Y-37372D01*
X54219Y-37463D01*
X54058Y-37623D01*
X53899Y-37464D01*
X53678Y-37372D01*
X53440Y-37372D01*
X53219Y-37463D01*
X53050Y-37632D01*
X52959Y-37852D01*
X52958Y-38091D01*
X53050Y-38311D01*
X53218Y-38480D01*
X53439Y-38572D01*
X53677Y-38572D01*
X53898Y-38481D01*
X54059Y-38320D01*
X54218Y-38480D01*
X54439Y-38572D01*
X54677Y-38572D01*
X54898Y-38481D01*
X55067Y-38312D01*
X55158Y-38092D01*
X55159Y-37853D01*
X55159Y-41853D01*
X55068Y-41633D01*
X54899Y-41464D01*
X54678Y-41372D01*
X54600Y-41372D01*
X54600Y-40353D01*
X54508Y-40133D01*
X54340Y-39964D01*
X54119Y-39872D01*
X53881Y-39872D01*
X53660Y-39963D01*
X53491Y-40132D01*
X53400Y-40352D01*
X53399Y-40591D01*
X53491Y-40811D01*
X53659Y-40980D01*
X53880Y-41072D01*
X54118Y-41072D01*
X54339Y-40981D01*
X54508Y-40812D01*
X54599Y-40592D01*
X54600Y-40353D01*
X54600Y-41372D01*
X54440Y-41372D01*
X54219Y-41463D01*
X54058Y-41623D01*
X53899Y-41464D01*
X53678Y-41372D01*
X53440Y-41372D01*
X53219Y-41463D01*
X53050Y-41632D01*
X52959Y-41852D01*
X52958Y-42091D01*
X53050Y-42311D01*
X53218Y-42480D01*
X53439Y-42572D01*
X53677Y-42572D01*
X53898Y-42481D01*
X54059Y-42320D01*
X54218Y-42480D01*
X54439Y-42572D01*
X54677Y-42572D01*
X54898Y-42481D01*
X55067Y-42312D01*
X55158Y-42092D01*
X55159Y-41853D01*
X55159Y-44853D01*
X55068Y-44633D01*
X54899Y-44464D01*
X54678Y-44372D01*
X54440Y-44372D01*
X54219Y-44463D01*
X54058Y-44623D01*
X53899Y-44464D01*
X53678Y-44372D01*
X53440Y-44372D01*
X53219Y-44463D01*
X53050Y-44632D01*
X52959Y-44852D01*
X52958Y-45091D01*
X53050Y-45311D01*
X53218Y-45480D01*
X53439Y-45572D01*
X53677Y-45572D01*
X53898Y-45481D01*
X54059Y-45320D01*
X54218Y-45480D01*
X54439Y-45572D01*
X54677Y-45572D01*
X54898Y-45481D01*
X55067Y-45312D01*
X55158Y-45092D01*
X55159Y-44853D01*
X55159Y-46974D01*
X51840Y-46974D01*
X51840Y-44226D01*
X51840Y-43674D01*
X51802Y-43582D01*
X51732Y-43512D01*
X51702Y-43500D01*
X51731Y-43487D01*
X51802Y-43417D01*
X51840Y-43325D01*
X51840Y-43226D01*
X51840Y-42674D01*
X51802Y-42582D01*
X51732Y-42512D01*
X51702Y-42500D01*
X51731Y-42487D01*
X51802Y-42417D01*
X51840Y-42325D01*
X51840Y-42226D01*
X51840Y-41674D01*
X51840Y-38698D01*
X51840Y-38147D01*
X51802Y-38055D01*
X51732Y-37985D01*
X51702Y-37972D01*
X51731Y-37960D01*
X51802Y-37889D01*
X51840Y-37797D01*
X51840Y-37698D01*
X51840Y-37147D01*
X51802Y-37055D01*
X51732Y-36985D01*
X51702Y-36972D01*
X51731Y-36960D01*
X51802Y-36889D01*
X51840Y-36797D01*
X51840Y-36698D01*
X51840Y-36147D01*
X51837Y-36140D01*
X51837Y-28925D01*
X51678Y-28539D01*
X51382Y-28244D01*
X50997Y-28084D01*
X50579Y-28083D01*
X50193Y-28243D01*
X49897Y-28538D01*
X49737Y-28924D01*
X49737Y-29341D01*
X49896Y-29727D01*
X50191Y-30023D01*
X50577Y-30183D01*
X50995Y-30184D01*
X51381Y-30024D01*
X51677Y-29729D01*
X51837Y-29343D01*
X51837Y-28925D01*
X51837Y-36140D01*
X51802Y-36055D01*
X51785Y-36038D01*
X51785Y-33194D01*
X51785Y-32643D01*
X51747Y-32551D01*
X51677Y-32481D01*
X51646Y-32468D01*
X51676Y-32456D01*
X51747Y-32385D01*
X51785Y-32294D01*
X51785Y-32194D01*
X51785Y-31643D01*
X51747Y-31551D01*
X51677Y-31481D01*
X51646Y-31468D01*
X51676Y-31456D01*
X51747Y-31385D01*
X51785Y-31294D01*
X51785Y-31194D01*
X51785Y-30643D01*
X51747Y-30551D01*
X51677Y-30481D01*
X51585Y-30442D01*
X51485Y-30442D01*
X50304Y-30442D01*
X50212Y-30480D01*
X50142Y-30551D01*
X50104Y-30642D01*
X50104Y-30742D01*
X50104Y-31293D01*
X50142Y-31385D01*
X50212Y-31455D01*
X50242Y-31468D01*
X50212Y-31480D01*
X50142Y-31551D01*
X50104Y-31642D01*
X50104Y-31742D01*
X50104Y-32293D01*
X50142Y-32385D01*
X50212Y-32455D01*
X50242Y-32468D01*
X50212Y-32480D01*
X50142Y-32551D01*
X50104Y-32642D01*
X50104Y-32742D01*
X50104Y-33293D01*
X50142Y-33385D01*
X50212Y-33455D01*
X50304Y-33494D01*
X50403Y-33494D01*
X51584Y-33494D01*
X51676Y-33456D01*
X51747Y-33385D01*
X51785Y-33294D01*
X51785Y-33194D01*
X51785Y-36038D01*
X51732Y-35985D01*
X51640Y-35946D01*
X51541Y-35946D01*
X50359Y-35946D01*
X50268Y-35984D01*
X50197Y-36055D01*
X50159Y-36146D01*
X50159Y-36246D01*
X50159Y-36797D01*
X50197Y-36889D01*
X50267Y-36959D01*
X50297Y-36972D01*
X50268Y-36984D01*
X50197Y-37055D01*
X50159Y-37146D01*
X50159Y-37246D01*
X50159Y-37797D01*
X50197Y-37889D01*
X50267Y-37959D01*
X50297Y-37972D01*
X50268Y-37984D01*
X50197Y-38055D01*
X50159Y-38146D01*
X50159Y-38246D01*
X50159Y-38797D01*
X50197Y-38889D01*
X50267Y-38959D01*
X50359Y-38997D01*
X50458Y-38998D01*
X51640Y-38998D01*
X51731Y-38960D01*
X51802Y-38889D01*
X51840Y-38797D01*
X51840Y-38698D01*
X51840Y-41674D01*
X51802Y-41582D01*
X51732Y-41512D01*
X51640Y-41474D01*
X51541Y-41474D01*
X50359Y-41474D01*
X50268Y-41512D01*
X50197Y-41582D01*
X50159Y-41674D01*
X50159Y-41773D01*
X50159Y-42325D01*
X50197Y-42417D01*
X50267Y-42487D01*
X50297Y-42499D01*
X50268Y-42512D01*
X50197Y-42582D01*
X50159Y-42674D01*
X50159Y-42773D01*
X50159Y-43325D01*
X50197Y-43417D01*
X50267Y-43487D01*
X50297Y-43499D01*
X50268Y-43512D01*
X50197Y-43582D01*
X50159Y-43674D01*
X50159Y-43773D01*
X50159Y-44325D01*
X50197Y-44417D01*
X50267Y-44487D01*
X50359Y-44525D01*
X50458Y-44525D01*
X51640Y-44525D01*
X51731Y-44487D01*
X51802Y-44417D01*
X51840Y-44325D01*
X51840Y-44226D01*
X51840Y-46974D01*
X51837Y-46974D01*
X51837Y-45461D01*
X51678Y-45075D01*
X51382Y-44779D01*
X50997Y-44619D01*
X50579Y-44619D01*
X50193Y-44778D01*
X49897Y-45073D01*
X49737Y-45459D01*
X49737Y-45877D01*
X49896Y-46263D01*
X50191Y-46558D01*
X50577Y-46719D01*
X50995Y-46719D01*
X51381Y-46559D01*
X51677Y-46264D01*
X51837Y-45879D01*
X51837Y-45461D01*
X51837Y-46974D01*
X49482Y-46974D01*
X49482Y-27828D01*
X62992Y-27828D01*
X68627Y-27828D01*
X68627Y-46974D01*
X68627Y-46974D01*
G37*
G54D20*
X68627Y-46974D02*
X68557Y-46974D01*
X68557Y-28889D01*
X68369Y-28435D01*
X68022Y-28088D01*
X67569Y-27899D01*
X67078Y-27899D01*
X66624Y-28086D01*
X66277Y-28433D01*
X66088Y-28887D01*
X66088Y-29378D01*
X66275Y-29832D01*
X66622Y-30179D01*
X67076Y-30367D01*
X67567Y-30368D01*
X68021Y-30180D01*
X68368Y-29833D01*
X68556Y-29380D01*
X68557Y-28889D01*
X68557Y-46974D01*
X68373Y-46974D01*
X68373Y-45461D01*
X68213Y-45075D01*
X68025Y-44886D01*
X68025Y-34697D01*
X68025Y-34246D01*
X68024Y-34147D01*
X67986Y-34055D01*
X67916Y-33985D01*
X67824Y-33947D01*
X67612Y-33947D01*
X67550Y-34009D01*
X67550Y-34422D01*
X67962Y-34422D01*
X68025Y-34359D01*
X68025Y-34246D01*
X68025Y-34697D01*
X68025Y-34584D01*
X67962Y-34522D01*
X67550Y-34522D01*
X67550Y-34934D01*
X67612Y-34997D01*
X67824Y-34997D01*
X67916Y-34959D01*
X67986Y-34889D01*
X68024Y-34797D01*
X68025Y-34697D01*
X68025Y-44886D01*
X67918Y-44779D01*
X67532Y-44619D01*
X67500Y-44619D01*
X67500Y-39873D01*
X67500Y-39873D01*
X67500Y-39271D01*
X67500Y-38672D01*
X67462Y-38581D01*
X67450Y-38568D01*
X67450Y-34934D01*
X67450Y-34522D01*
X67442Y-34522D01*
X67442Y-34422D01*
X67450Y-34422D01*
X67450Y-34009D01*
X67387Y-33947D01*
X67175Y-33947D01*
X67083Y-33985D01*
X67013Y-34055D01*
X66975Y-34147D01*
X66974Y-34246D01*
X66974Y-34247D01*
X66945Y-34175D01*
X66797Y-34027D01*
X66604Y-33947D01*
X66396Y-33947D01*
X66203Y-34027D01*
X66055Y-34174D01*
X65975Y-34367D01*
X65974Y-34576D01*
X66054Y-34769D01*
X66202Y-34917D01*
X66335Y-34972D01*
X66203Y-35027D01*
X66055Y-35174D01*
X65975Y-35367D01*
X65974Y-35576D01*
X66054Y-35769D01*
X66202Y-35917D01*
X66395Y-35997D01*
X66603Y-35997D01*
X66797Y-35917D01*
X66944Y-35770D01*
X67024Y-35577D01*
X67025Y-35368D01*
X66945Y-35175D01*
X66797Y-35027D01*
X66664Y-34972D01*
X66797Y-34917D01*
X66944Y-34770D01*
X66974Y-34697D01*
X66974Y-34697D01*
X66975Y-34797D01*
X67013Y-34889D01*
X67083Y-34959D01*
X67175Y-34997D01*
X67387Y-34997D01*
X67450Y-34934D01*
X67450Y-38568D01*
X67391Y-38510D01*
X67299Y-38472D01*
X67200Y-38472D01*
X67112Y-38472D01*
X67050Y-38534D01*
X67050Y-38922D01*
X67437Y-38922D01*
X67500Y-38859D01*
X67500Y-38672D01*
X67500Y-39271D01*
X67500Y-39084D01*
X67437Y-39022D01*
X67050Y-39022D01*
X67050Y-39409D01*
X67112Y-39472D01*
X67200Y-39472D01*
X67299Y-39472D01*
X67391Y-39434D01*
X67462Y-39363D01*
X67500Y-39271D01*
X67500Y-39873D01*
X67424Y-39689D01*
X67283Y-39548D01*
X67099Y-39472D01*
X66950Y-39472D01*
X66950Y-39409D01*
X66950Y-39022D01*
X66950Y-38922D01*
X66950Y-38534D01*
X66887Y-38472D01*
X66799Y-38472D01*
X66700Y-38472D01*
X66608Y-38510D01*
X66537Y-38581D01*
X66499Y-38672D01*
X66500Y-38859D01*
X66562Y-38922D01*
X66950Y-38922D01*
X66950Y-39022D01*
X66562Y-39022D01*
X66500Y-39084D01*
X66499Y-39271D01*
X66537Y-39363D01*
X66608Y-39434D01*
X66700Y-39472D01*
X66799Y-39472D01*
X66887Y-39472D01*
X66950Y-39409D01*
X66950Y-39472D01*
X66900Y-39472D01*
X66717Y-39548D01*
X66576Y-39688D01*
X66500Y-39872D01*
X66499Y-40071D01*
X66575Y-40255D01*
X66716Y-40396D01*
X66900Y-40472D01*
X67099Y-40472D01*
X67282Y-40396D01*
X67423Y-40256D01*
X67499Y-40072D01*
X67500Y-39873D01*
X67500Y-44619D01*
X67114Y-44619D01*
X66728Y-44778D01*
X66433Y-45073D01*
X66273Y-45459D01*
X66272Y-45877D01*
X66432Y-46263D01*
X66727Y-46558D01*
X67113Y-46719D01*
X67530Y-46719D01*
X67916Y-46559D01*
X68212Y-46264D01*
X68372Y-45879D01*
X68373Y-45461D01*
X68373Y-46974D01*
X66004Y-46974D01*
X66004Y-45542D01*
X65993Y-45343D01*
X65939Y-45214D01*
X65849Y-45193D01*
X65778Y-45264D01*
X65778Y-45122D01*
X65757Y-45032D01*
X65569Y-44967D01*
X65371Y-44979D01*
X65242Y-45032D01*
X65221Y-45122D01*
X65500Y-45401D01*
X65778Y-45122D01*
X65778Y-45264D01*
X65570Y-45472D01*
X65849Y-45751D01*
X65939Y-45730D01*
X66004Y-45542D01*
X66004Y-46974D01*
X65778Y-46974D01*
X65778Y-45822D01*
X65500Y-45543D01*
X65429Y-45613D01*
X65429Y-45472D01*
X65150Y-45193D01*
X65060Y-45214D01*
X65025Y-45315D01*
X65025Y-36197D01*
X65025Y-35746D01*
X65024Y-35647D01*
X64986Y-35555D01*
X64916Y-35485D01*
X64824Y-35447D01*
X64612Y-35447D01*
X64600Y-35459D01*
X64600Y-28772D01*
X64600Y-28072D01*
X64562Y-27981D01*
X64491Y-27910D01*
X64399Y-27872D01*
X64300Y-27872D01*
X63600Y-27872D01*
X63508Y-27910D01*
X63438Y-27980D01*
X63400Y-28072D01*
X63399Y-28171D01*
X63399Y-28871D01*
X63437Y-28963D01*
X63508Y-29034D01*
X63600Y-29072D01*
X63699Y-29072D01*
X64399Y-29072D01*
X64491Y-29034D01*
X64561Y-28964D01*
X64599Y-28872D01*
X64600Y-28772D01*
X64600Y-35459D01*
X64550Y-35509D01*
X64550Y-35922D01*
X64962Y-35922D01*
X65025Y-35859D01*
X65025Y-35746D01*
X65025Y-36197D01*
X65025Y-36084D01*
X64962Y-36022D01*
X64550Y-36022D01*
X64550Y-36434D01*
X64612Y-36497D01*
X64824Y-36497D01*
X64916Y-36459D01*
X64986Y-36389D01*
X65024Y-36297D01*
X65025Y-36197D01*
X65025Y-45315D01*
X65000Y-45388D01*
X65000Y-45373D01*
X64924Y-45189D01*
X64783Y-45048D01*
X64599Y-44972D01*
X64525Y-44972D01*
X64525Y-42868D01*
X64525Y-39868D01*
X64450Y-39686D01*
X64450Y-36434D01*
X64450Y-36022D01*
X64442Y-36022D01*
X64442Y-35922D01*
X64450Y-35922D01*
X64450Y-35509D01*
X64387Y-35447D01*
X64175Y-35447D01*
X64083Y-35485D01*
X64013Y-35555D01*
X63975Y-35647D01*
X63974Y-35746D01*
X63974Y-35747D01*
X63945Y-35675D01*
X63797Y-35527D01*
X63604Y-35447D01*
X63396Y-35447D01*
X63203Y-35527D01*
X63055Y-35674D01*
X62975Y-35867D01*
X62974Y-36076D01*
X63054Y-36269D01*
X63202Y-36417D01*
X63335Y-36472D01*
X63203Y-36527D01*
X63055Y-36674D01*
X62975Y-36867D01*
X62974Y-37076D01*
X63054Y-37269D01*
X63202Y-37417D01*
X63395Y-37497D01*
X63603Y-37497D01*
X63797Y-37417D01*
X63944Y-37270D01*
X64024Y-37077D01*
X64025Y-36868D01*
X63945Y-36675D01*
X63797Y-36527D01*
X63664Y-36472D01*
X63797Y-36417D01*
X63944Y-36270D01*
X63974Y-36197D01*
X63974Y-36197D01*
X63975Y-36297D01*
X64013Y-36389D01*
X64083Y-36459D01*
X64175Y-36497D01*
X64387Y-36497D01*
X64450Y-36434D01*
X64450Y-39686D01*
X64445Y-39675D01*
X64297Y-39527D01*
X64104Y-39447D01*
X63896Y-39447D01*
X63703Y-39527D01*
X63555Y-39674D01*
X63475Y-39867D01*
X63474Y-40076D01*
X63554Y-40269D01*
X63702Y-40417D01*
X63895Y-40497D01*
X64103Y-40497D01*
X64297Y-40417D01*
X64444Y-40270D01*
X64524Y-40077D01*
X64525Y-39868D01*
X64525Y-42868D01*
X64445Y-42675D01*
X64297Y-42527D01*
X64104Y-42447D01*
X63896Y-42447D01*
X63703Y-42527D01*
X63555Y-42674D01*
X63475Y-42867D01*
X63474Y-43076D01*
X63554Y-43269D01*
X63702Y-43417D01*
X63895Y-43497D01*
X64103Y-43497D01*
X64297Y-43417D01*
X64444Y-43270D01*
X64524Y-43077D01*
X64525Y-42868D01*
X64525Y-44972D01*
X64400Y-44972D01*
X64217Y-45048D01*
X64076Y-45188D01*
X64000Y-45372D01*
X64000Y-45373D01*
X64000Y-45373D01*
X63924Y-45189D01*
X63783Y-45048D01*
X63599Y-44972D01*
X63400Y-44972D01*
X63217Y-45048D01*
X63076Y-45188D01*
X63000Y-45372D01*
X63000Y-45423D01*
X63000Y-45172D01*
X62962Y-45081D01*
X62891Y-45010D01*
X62799Y-44972D01*
X62700Y-44972D01*
X62600Y-44972D01*
X62600Y-33772D01*
X62600Y-33072D01*
X62562Y-32981D01*
X62491Y-32910D01*
X62399Y-32872D01*
X62300Y-32872D01*
X61600Y-32872D01*
X61508Y-32910D01*
X61438Y-32980D01*
X61400Y-33072D01*
X61399Y-33171D01*
X61399Y-33871D01*
X61437Y-33963D01*
X61508Y-34034D01*
X61600Y-34072D01*
X61699Y-34072D01*
X62399Y-34072D01*
X62491Y-34034D01*
X62561Y-33964D01*
X62599Y-33872D01*
X62600Y-33772D01*
X62600Y-44972D01*
X62525Y-44972D01*
X62525Y-42868D01*
X62525Y-39868D01*
X62445Y-39675D01*
X62297Y-39527D01*
X62104Y-39447D01*
X62025Y-39447D01*
X62025Y-37697D01*
X62025Y-37246D01*
X62024Y-37147D01*
X61986Y-37055D01*
X61916Y-36985D01*
X61824Y-36947D01*
X61612Y-36947D01*
X61550Y-37009D01*
X61550Y-37422D01*
X61962Y-37422D01*
X62025Y-37359D01*
X62025Y-37246D01*
X62025Y-37697D01*
X62025Y-37584D01*
X61962Y-37522D01*
X61550Y-37522D01*
X61550Y-37934D01*
X61612Y-37997D01*
X61824Y-37997D01*
X61916Y-37959D01*
X61986Y-37889D01*
X62024Y-37797D01*
X62025Y-37697D01*
X62025Y-39447D01*
X61896Y-39447D01*
X61703Y-39527D01*
X61555Y-39674D01*
X61475Y-39867D01*
X61474Y-40076D01*
X61554Y-40269D01*
X61702Y-40417D01*
X61895Y-40497D01*
X62103Y-40497D01*
X62297Y-40417D01*
X62444Y-40270D01*
X62524Y-40077D01*
X62525Y-39868D01*
X62525Y-42868D01*
X62445Y-42675D01*
X62297Y-42527D01*
X62104Y-42447D01*
X61896Y-42447D01*
X61703Y-42527D01*
X61555Y-42674D01*
X61475Y-42867D01*
X61474Y-43076D01*
X61554Y-43269D01*
X61702Y-43417D01*
X61895Y-43497D01*
X62103Y-43497D01*
X62297Y-43417D01*
X62444Y-43270D01*
X62524Y-43077D01*
X62525Y-42868D01*
X62525Y-44972D01*
X62200Y-44972D01*
X62108Y-45010D01*
X62038Y-45080D01*
X62000Y-45172D01*
X61999Y-45271D01*
X61999Y-45771D01*
X62037Y-45863D01*
X62108Y-45934D01*
X62200Y-45972D01*
X62299Y-45972D01*
X62799Y-45972D01*
X62891Y-45934D01*
X62961Y-45864D01*
X62999Y-45772D01*
X63000Y-45672D01*
X63000Y-45571D01*
X63075Y-45755D01*
X63216Y-45896D01*
X63400Y-45972D01*
X63599Y-45972D01*
X63782Y-45896D01*
X63923Y-45756D01*
X63999Y-45572D01*
X64000Y-45373D01*
X64000Y-45373D01*
X63999Y-45571D01*
X64075Y-45755D01*
X64216Y-45896D01*
X64400Y-45972D01*
X64599Y-45972D01*
X64782Y-45896D01*
X64923Y-45756D01*
X64999Y-45572D01*
X64999Y-45486D01*
X65006Y-45601D01*
X65060Y-45730D01*
X65150Y-45751D01*
X65429Y-45472D01*
X65429Y-45613D01*
X65221Y-45822D01*
X65242Y-45912D01*
X65430Y-45977D01*
X65628Y-45965D01*
X65757Y-45912D01*
X65778Y-45822D01*
X65778Y-46974D01*
X61450Y-46974D01*
X61450Y-37934D01*
X61450Y-37522D01*
X61442Y-37522D01*
X61442Y-37422D01*
X61450Y-37422D01*
X61450Y-37009D01*
X61387Y-36947D01*
X61175Y-36947D01*
X61083Y-36985D01*
X61013Y-37055D01*
X60975Y-37147D01*
X60974Y-37246D01*
X60974Y-37247D01*
X60945Y-37175D01*
X60797Y-37027D01*
X60604Y-36947D01*
X60600Y-36947D01*
X60600Y-28353D01*
X60508Y-28133D01*
X60340Y-27964D01*
X60119Y-27872D01*
X59881Y-27872D01*
X59660Y-27963D01*
X59491Y-28132D01*
X59400Y-28352D01*
X59399Y-28591D01*
X59491Y-28811D01*
X59659Y-28980D01*
X59880Y-29072D01*
X60118Y-29072D01*
X60339Y-28981D01*
X60508Y-28812D01*
X60599Y-28592D01*
X60600Y-28353D01*
X60600Y-36947D01*
X60396Y-36947D01*
X60203Y-37027D01*
X60055Y-37174D01*
X59975Y-37367D01*
X59974Y-37576D01*
X60054Y-37769D01*
X60202Y-37917D01*
X60335Y-37972D01*
X60203Y-38027D01*
X60055Y-38174D01*
X59975Y-38367D01*
X59974Y-38576D01*
X60054Y-38769D01*
X60202Y-38917D01*
X60395Y-38997D01*
X60603Y-38997D01*
X60797Y-38917D01*
X60944Y-38770D01*
X61024Y-38577D01*
X61025Y-38368D01*
X60945Y-38175D01*
X60797Y-38027D01*
X60664Y-37972D01*
X60797Y-37917D01*
X60944Y-37770D01*
X60974Y-37697D01*
X60974Y-37697D01*
X60975Y-37797D01*
X61013Y-37889D01*
X61083Y-37959D01*
X61175Y-37997D01*
X61387Y-37997D01*
X61450Y-37934D01*
X61450Y-46974D01*
X60525Y-46974D01*
X60525Y-42868D01*
X60525Y-39868D01*
X60445Y-39675D01*
X60297Y-39527D01*
X60104Y-39447D01*
X59896Y-39447D01*
X59703Y-39527D01*
X59555Y-39674D01*
X59475Y-39867D01*
X59474Y-40076D01*
X59554Y-40269D01*
X59702Y-40417D01*
X59895Y-40497D01*
X60103Y-40497D01*
X60297Y-40417D01*
X60444Y-40270D01*
X60524Y-40077D01*
X60525Y-39868D01*
X60525Y-42868D01*
X60445Y-42675D01*
X60297Y-42527D01*
X60104Y-42447D01*
X59896Y-42447D01*
X59703Y-42527D01*
X59555Y-42674D01*
X59475Y-42867D01*
X59474Y-43076D01*
X59554Y-43269D01*
X59702Y-43417D01*
X59895Y-43497D01*
X60103Y-43497D01*
X60297Y-43417D01*
X60444Y-43270D01*
X60524Y-43077D01*
X60525Y-42868D01*
X60525Y-46974D01*
X59159Y-46974D01*
X59159Y-44853D01*
X59159Y-41853D01*
X59159Y-37853D01*
X59159Y-34853D01*
X59159Y-31853D01*
X59159Y-28853D01*
X59068Y-28633D01*
X58899Y-28464D01*
X58678Y-28372D01*
X58440Y-28372D01*
X58219Y-28463D01*
X58050Y-28632D01*
X57959Y-28852D01*
X57958Y-29091D01*
X58050Y-29311D01*
X58218Y-29480D01*
X58439Y-29572D01*
X58677Y-29572D01*
X58898Y-29481D01*
X59067Y-29312D01*
X59158Y-29092D01*
X59159Y-28853D01*
X59159Y-31853D01*
X59068Y-31633D01*
X58899Y-31464D01*
X58678Y-31372D01*
X58440Y-31372D01*
X58219Y-31463D01*
X58050Y-31632D01*
X57959Y-31852D01*
X57958Y-32091D01*
X58050Y-32311D01*
X58218Y-32480D01*
X58439Y-32572D01*
X58677Y-32572D01*
X58898Y-32481D01*
X59067Y-32312D01*
X59158Y-32092D01*
X59159Y-31853D01*
X59159Y-34853D01*
X59068Y-34633D01*
X58899Y-34464D01*
X58678Y-34372D01*
X58600Y-34372D01*
X58600Y-33353D01*
X58508Y-33133D01*
X58340Y-32964D01*
X58119Y-32872D01*
X57881Y-32872D01*
X57660Y-32963D01*
X57491Y-33132D01*
X57400Y-33352D01*
X57399Y-33591D01*
X57491Y-33811D01*
X57659Y-33980D01*
X57880Y-34072D01*
X58118Y-34072D01*
X58339Y-33981D01*
X58508Y-33812D01*
X58599Y-33592D01*
X58600Y-33353D01*
X58600Y-34372D01*
X58440Y-34372D01*
X58219Y-34463D01*
X58050Y-34632D01*
X57959Y-34852D01*
X57958Y-35091D01*
X58050Y-35311D01*
X58218Y-35480D01*
X58439Y-35572D01*
X58677Y-35572D01*
X58898Y-35481D01*
X59067Y-35312D01*
X59158Y-35092D01*
X59159Y-34853D01*
X59159Y-37853D01*
X59068Y-37633D01*
X58899Y-37464D01*
X58678Y-37372D01*
X58440Y-37372D01*
X58219Y-37463D01*
X58050Y-37632D01*
X57959Y-37852D01*
X57958Y-38091D01*
X58050Y-38311D01*
X58218Y-38480D01*
X58439Y-38572D01*
X58677Y-38572D01*
X58898Y-38481D01*
X59067Y-38312D01*
X59158Y-38092D01*
X59159Y-37853D01*
X59159Y-41853D01*
X59068Y-41633D01*
X58899Y-41464D01*
X58678Y-41372D01*
X58600Y-41372D01*
X58600Y-40772D01*
X58600Y-40072D01*
X58562Y-39981D01*
X58491Y-39910D01*
X58399Y-39872D01*
X58300Y-39872D01*
X57600Y-39872D01*
X57508Y-39910D01*
X57438Y-39980D01*
X57400Y-40072D01*
X57399Y-40171D01*
X57399Y-40871D01*
X57437Y-40963D01*
X57508Y-41034D01*
X57600Y-41072D01*
X57699Y-41072D01*
X58399Y-41072D01*
X58491Y-41034D01*
X58561Y-40964D01*
X58599Y-40872D01*
X58600Y-40772D01*
X58600Y-41372D01*
X58440Y-41372D01*
X58219Y-41463D01*
X58050Y-41632D01*
X57959Y-41852D01*
X57958Y-42091D01*
X58050Y-42311D01*
X58218Y-42480D01*
X58439Y-42572D01*
X58677Y-42572D01*
X58898Y-42481D01*
X59067Y-42312D01*
X59158Y-42092D01*
X59159Y-41853D01*
X59159Y-44853D01*
X59068Y-44633D01*
X58899Y-44464D01*
X58678Y-44372D01*
X58440Y-44372D01*
X58219Y-44463D01*
X58050Y-44632D01*
X57959Y-44852D01*
X57958Y-45091D01*
X58050Y-45311D01*
X58218Y-45480D01*
X58439Y-45572D01*
X58677Y-45572D01*
X58898Y-45481D01*
X59067Y-45312D01*
X59158Y-45092D01*
X59159Y-44853D01*
X59159Y-46974D01*
X55159Y-46974D01*
X55159Y-44853D01*
X55159Y-41853D01*
X55159Y-37853D01*
X55159Y-34853D01*
X55159Y-31853D01*
X55159Y-28853D01*
X55068Y-28633D01*
X54899Y-28464D01*
X54678Y-28372D01*
X54440Y-28372D01*
X54219Y-28463D01*
X54058Y-28623D01*
X53899Y-28464D01*
X53678Y-28372D01*
X53440Y-28372D01*
X53219Y-28463D01*
X53050Y-28632D01*
X52959Y-28852D01*
X52958Y-29091D01*
X53050Y-29311D01*
X53218Y-29480D01*
X53439Y-29572D01*
X53677Y-29572D01*
X53898Y-29481D01*
X54059Y-29320D01*
X54218Y-29480D01*
X54439Y-29572D01*
X54677Y-29572D01*
X54898Y-29481D01*
X55067Y-29312D01*
X55158Y-29092D01*
X55159Y-28853D01*
X55159Y-31853D01*
X55068Y-31633D01*
X54899Y-31464D01*
X54678Y-31372D01*
X54440Y-31372D01*
X54219Y-31463D01*
X54058Y-31623D01*
X53899Y-31464D01*
X53678Y-31372D01*
X53440Y-31372D01*
X53219Y-31463D01*
X53050Y-31632D01*
X52959Y-31852D01*
X52958Y-32091D01*
X53050Y-32311D01*
X53218Y-32480D01*
X53439Y-32572D01*
X53677Y-32572D01*
X53898Y-32481D01*
X54059Y-32320D01*
X54218Y-32480D01*
X54439Y-32572D01*
X54677Y-32572D01*
X54898Y-32481D01*
X55067Y-32312D01*
X55158Y-32092D01*
X55159Y-31853D01*
X55159Y-34853D01*
X55068Y-34633D01*
X54899Y-34464D01*
X54678Y-34372D01*
X54440Y-34372D01*
X54219Y-34463D01*
X54058Y-34623D01*
X53899Y-34464D01*
X53678Y-34372D01*
X53440Y-34372D01*
X53219Y-34463D01*
X53050Y-34632D01*
X52959Y-34852D01*
X52958Y-35091D01*
X53050Y-35311D01*
X53218Y-35480D01*
X53439Y-35572D01*
X53677Y-35572D01*
X53898Y-35481D01*
X54059Y-35320D01*
X54218Y-35480D01*
X54439Y-35572D01*
X54677Y-35572D01*
X54898Y-35481D01*
X55067Y-35312D01*
X55158Y-35092D01*
X55159Y-34853D01*
X55159Y-37853D01*
X55068Y-37633D01*
X54899Y-37464D01*
X54678Y-37372D01*
X54440Y-37372D01*
X54219Y-37463D01*
X54058Y-37623D01*
X53899Y-37464D01*
X53678Y-37372D01*
X53440Y-37372D01*
X53219Y-37463D01*
X53050Y-37632D01*
X52959Y-37852D01*
X52958Y-38091D01*
X53050Y-38311D01*
X53218Y-38480D01*
X53439Y-38572D01*
X53677Y-38572D01*
X53898Y-38481D01*
X54059Y-38320D01*
X54218Y-38480D01*
X54439Y-38572D01*
X54677Y-38572D01*
X54898Y-38481D01*
X55067Y-38312D01*
X55158Y-38092D01*
X55159Y-37853D01*
X55159Y-41853D01*
X55068Y-41633D01*
X54899Y-41464D01*
X54678Y-41372D01*
X54600Y-41372D01*
X54600Y-40353D01*
X54508Y-40133D01*
X54340Y-39964D01*
X54119Y-39872D01*
X53881Y-39872D01*
X53660Y-39963D01*
X53491Y-40132D01*
X53400Y-40352D01*
X53399Y-40591D01*
X53491Y-40811D01*
X53659Y-40980D01*
X53880Y-41072D01*
X54118Y-41072D01*
X54339Y-40981D01*
X54508Y-40812D01*
X54599Y-40592D01*
X54600Y-40353D01*
X54600Y-41372D01*
X54440Y-41372D01*
X54219Y-41463D01*
X54058Y-41623D01*
X53899Y-41464D01*
X53678Y-41372D01*
X53440Y-41372D01*
X53219Y-41463D01*
X53050Y-41632D01*
X52959Y-41852D01*
X52958Y-42091D01*
X53050Y-42311D01*
X53218Y-42480D01*
X53439Y-42572D01*
X53677Y-42572D01*
X53898Y-42481D01*
X54059Y-42320D01*
X54218Y-42480D01*
X54439Y-42572D01*
X54677Y-42572D01*
X54898Y-42481D01*
X55067Y-42312D01*
X55158Y-42092D01*
X55159Y-41853D01*
X55159Y-44853D01*
X55068Y-44633D01*
X54899Y-44464D01*
X54678Y-44372D01*
X54440Y-44372D01*
X54219Y-44463D01*
X54058Y-44623D01*
X53899Y-44464D01*
X53678Y-44372D01*
X53440Y-44372D01*
X53219Y-44463D01*
X53050Y-44632D01*
X52959Y-44852D01*
X52958Y-45091D01*
X53050Y-45311D01*
X53218Y-45480D01*
X53439Y-45572D01*
X53677Y-45572D01*
X53898Y-45481D01*
X54059Y-45320D01*
X54218Y-45480D01*
X54439Y-45572D01*
X54677Y-45572D01*
X54898Y-45481D01*
X55067Y-45312D01*
X55158Y-45092D01*
X55159Y-44853D01*
X55159Y-46974D01*
X51840Y-46974D01*
X51840Y-44226D01*
X51840Y-43674D01*
X51802Y-43582D01*
X51732Y-43512D01*
X51702Y-43500D01*
X51731Y-43487D01*
X51802Y-43417D01*
X51840Y-43325D01*
X51840Y-43226D01*
X51840Y-42674D01*
X51802Y-42582D01*
X51732Y-42512D01*
X51702Y-42500D01*
X51731Y-42487D01*
X51802Y-42417D01*
X51840Y-42325D01*
X51840Y-42226D01*
X51840Y-41674D01*
X51840Y-38698D01*
X51840Y-38147D01*
X51802Y-38055D01*
X51732Y-37985D01*
X51702Y-37972D01*
X51731Y-37960D01*
X51802Y-37889D01*
X51840Y-37797D01*
X51840Y-37698D01*
X51840Y-37147D01*
X51802Y-37055D01*
X51732Y-36985D01*
X51702Y-36972D01*
X51731Y-36960D01*
X51802Y-36889D01*
X51840Y-36797D01*
X51840Y-36698D01*
X51840Y-36147D01*
X51837Y-36140D01*
X51837Y-28925D01*
X51678Y-28539D01*
X51382Y-28244D01*
X50997Y-28084D01*
X50579Y-28083D01*
X50193Y-28243D01*
X49897Y-28538D01*
X49737Y-28924D01*
X49737Y-29341D01*
X49896Y-29727D01*
X50191Y-30023D01*
X50577Y-30183D01*
X50995Y-30184D01*
X51381Y-30024D01*
X51677Y-29729D01*
X51837Y-29343D01*
X51837Y-28925D01*
X51837Y-36140D01*
X51802Y-36055D01*
X51785Y-36038D01*
X51785Y-33194D01*
X51785Y-32643D01*
X51747Y-32551D01*
X51677Y-32481D01*
X51646Y-32468D01*
X51676Y-32456D01*
X51747Y-32385D01*
X51785Y-32294D01*
X51785Y-32194D01*
X51785Y-31643D01*
X51747Y-31551D01*
X51677Y-31481D01*
X51646Y-31468D01*
X51676Y-31456D01*
X51747Y-31385D01*
X51785Y-31294D01*
X51785Y-31194D01*
X51785Y-30643D01*
X51747Y-30551D01*
X51677Y-30481D01*
X51585Y-30442D01*
X51485Y-30442D01*
X50304Y-30442D01*
X50212Y-30480D01*
X50142Y-30551D01*
X50104Y-30642D01*
X50104Y-30742D01*
X50104Y-31293D01*
X50142Y-31385D01*
X50212Y-31455D01*
X50242Y-31468D01*
X50212Y-31480D01*
X50142Y-31551D01*
X50104Y-31642D01*
X50104Y-31742D01*
X50104Y-32293D01*
X50142Y-32385D01*
X50212Y-32455D01*
X50242Y-32468D01*
X50212Y-32480D01*
X50142Y-32551D01*
X50104Y-32642D01*
X50104Y-32742D01*
X50104Y-33293D01*
X50142Y-33385D01*
X50212Y-33455D01*
X50304Y-33494D01*
X50403Y-33494D01*
X51584Y-33494D01*
X51676Y-33456D01*
X51747Y-33385D01*
X51785Y-33294D01*
X51785Y-33194D01*
X51785Y-36038D01*
X51732Y-35985D01*
X51640Y-35946D01*
X51541Y-35946D01*
X50359Y-35946D01*
X50268Y-35984D01*
X50197Y-36055D01*
X50159Y-36146D01*
X50159Y-36246D01*
X50159Y-36797D01*
X50197Y-36889D01*
X50267Y-36959D01*
X50297Y-36972D01*
X50268Y-36984D01*
X50197Y-37055D01*
X50159Y-37146D01*
X50159Y-37246D01*
X50159Y-37797D01*
X50197Y-37889D01*
X50267Y-37959D01*
X50297Y-37972D01*
X50268Y-37984D01*
X50197Y-38055D01*
X50159Y-38146D01*
X50159Y-38246D01*
X50159Y-38797D01*
X50197Y-38889D01*
X50267Y-38959D01*
X50359Y-38997D01*
X50458Y-38998D01*
X51640Y-38998D01*
X51731Y-38960D01*
X51802Y-38889D01*
X51840Y-38797D01*
X51840Y-38698D01*
X51840Y-41674D01*
X51802Y-41582D01*
X51732Y-41512D01*
X51640Y-41474D01*
X51541Y-41474D01*
X50359Y-41474D01*
X50268Y-41512D01*
X50197Y-41582D01*
X50159Y-41674D01*
X50159Y-41773D01*
X50159Y-42325D01*
X50197Y-42417D01*
X50267Y-42487D01*
X50297Y-42499D01*
X50268Y-42512D01*
X50197Y-42582D01*
X50159Y-42674D01*
X50159Y-42773D01*
X50159Y-43325D01*
X50197Y-43417D01*
X50267Y-43487D01*
X50297Y-43499D01*
X50268Y-43512D01*
X50197Y-43582D01*
X50159Y-43674D01*
X50159Y-43773D01*
X50159Y-44325D01*
X50197Y-44417D01*
X50267Y-44487D01*
X50359Y-44525D01*
X50458Y-44525D01*
X51640Y-44525D01*
X51731Y-44487D01*
X51802Y-44417D01*
X51840Y-44325D01*
X51840Y-44226D01*
X51840Y-46974D01*
X51837Y-46974D01*
X51837Y-45461D01*
X51678Y-45075D01*
X51382Y-44779D01*
X50997Y-44619D01*
X50579Y-44619D01*
X50193Y-44778D01*
X49897Y-45073D01*
X49737Y-45459D01*
X49737Y-45877D01*
X49896Y-46263D01*
X50191Y-46558D01*
X50577Y-46719D01*
X50995Y-46719D01*
X51381Y-46559D01*
X51677Y-46264D01*
X51837Y-45879D01*
X51837Y-45461D01*
X51837Y-46974D01*
X49482Y-46974D01*
X49482Y-27828D01*
X62992Y-27828D01*
X68627Y-27828D01*
X68627Y-46974D01*
M02*
